<svg id="Layer_1" data-name="Layer 1" xmlns="http://www.w3.org/2000/svg" viewBox="0 0 343.69 321.79"><defs><style>.cls-1{fill:#f89f1c;}.cls-2{fill:#ec7d23;}.cls-3{fill:#f9ac1b;}.cls-4{fill:#66413f;}.cls-5{fill:#ee7399;}.cls-6{fill:#1a1a1a;}.cls-7{fill:#171717;}.cls-8{fill:#fff;}</style></defs><path class="cls-1" d="M16.91,105.69S-.36,42,23.58,2.62c0,0,57.31-16,102.69,31Z"/><path class="cls-2" d="M37.84,84.57s-10.25-37.8,3.95-61.13c0,0,34-9.47,60.9,18.4Z"/><path class="cls-1" d="M326.77,105.69S344.05,42,320.1,2.62c0,0-57.31-16-102.68,31Z"/><path class="cls-2" d="M305.85,84.57s10.24-37.8-4-61.13c0,0-34-9.47-60.89,18.4Z"/><path class="cls-3" d="M343.69,169.61c0,84-76.94,152.18-171.85,152.18S0,253.66,0,169.61,76.93,17.43,171.84,17.43,343.69,85.56,343.69,169.61Z"/><path class="cls-4" d="M123.89,23.35c3.57,4.45,14.75,14.49,26.16,27,0,0-.46-18.93-3-31.42A118.74,118.74,0,0,0,123.89,23.35Z"/><path class="cls-4" d="M196.66,19c-2.58,12.49-3,31.42-3,31.42,11.4-12.55,22.58-22.59,26.16-27A118.74,118.74,0,0,0,196.66,19Z"/><path class="cls-4" d="M157.89,18a75.32,75.32,0,0,0,14.35,31.27s9.57-9.64,13.55-31.71c-4.1-.23-10.33-.23-14.52-.23C166.25,17.31,162.81,17.64,157.89,18Z"/><path class="cls-5" d="M71.34,183.78c-21.05,0-38.12,12.58-38.12,28.08s17.07,28.07,38.12,28.07,38.09-12.57,38.09-28.07S92.38,183.78,71.34,183.78Z"/><path class="cls-6" d="M49.88,202.2s-14.08-1.69-33.82-3.78h0a2.72,2.72,0,0,1-2.41-3h0a2.71,2.71,0,0,1,3-2.41h0c19.78,2.1,33.88,3.79,33.89,3.79h0a2.7,2.7,0,0,1,2.36,3h0a2.7,2.7,0,0,1-2.68,2.38h-.32Z"/><path class="cls-6" d="M15.34,208.74a2.69,2.69,0,0,1,2.38-3h0c18-2,32.32-2.64,32.36-2.64h0a2.71,2.71,0,0,1,2.82,2.59h0a2.7,2.7,0,0,1-2.58,2.82h0s-14.21.63-32,2.61h0l-.3,0h0a2.71,2.71,0,0,1-2.69-2.41Z"/><path class="cls-6" d="M20.74,223.14a2.7,2.7,0,0,1,1.62-3.47h0l27.76-10.09h0a2.7,2.7,0,0,1,3.46,1.62h0A2.7,2.7,0,0,1,52,214.67h0L24.21,224.76h0a2.72,2.72,0,0,1-.92.17h0a2.72,2.72,0,0,1-2.55-1.79Z"/><path class="cls-5" d="M272.35,183.78c21,0,38.11,12.58,38.11,28.08s-17.06,28.07-38.11,28.07-38.1-12.57-38.1-28.07S251.31,183.78,272.35,183.78Z"/><path class="cls-6" d="M293.8,202.2s14.08-1.69,33.82-3.78h0a2.71,2.71,0,0,0,2.41-3h0a2.71,2.71,0,0,0-3-2.41h0c-19.77,2.1-33.87,3.79-33.89,3.79h0a2.7,2.7,0,0,0-2.36,3h0a2.71,2.71,0,0,0,2.69,2.38h.31Z"/><path class="cls-6" d="M328.35,208.74a2.71,2.71,0,0,0-2.39-3h0c-18-2-32.31-2.64-32.36-2.64h0a2.71,2.71,0,0,0-2.82,2.59h0a2.72,2.72,0,0,0,2.59,2.82h0s14.21.63,32,2.61h0l.3,0h0a2.71,2.71,0,0,0,2.69-2.41Z"/><path class="cls-6" d="M323,223.14a2.71,2.71,0,0,0-1.62-3.47h0l-27.77-10.09h0a2.7,2.7,0,0,0-3.46,1.62h0a2.69,2.69,0,0,0,1.62,3.47h0l27.75,10.09h0a2.77,2.77,0,0,0,.93.17h0a2.73,2.73,0,0,0,2.55-1.79Z"/><path class="cls-7" d="M206.59,220.76A2.69,2.69,0,0,0,203,222a1.53,1.53,0,0,1-.12.2c-.85,1.34-4.8,7.32-14.28,7.32-3.68,0-8.36-1-14.08-3.56V204.69a2.68,2.68,0,0,0-5.36,0v21.23c-5.73,2.58-10.4,3.56-14.07,3.56a16.86,16.86,0,0,1-11.28-3.87,15.1,15.1,0,0,1-2.46-2.62c-.25-.35-.43-.64-.54-.82s-.12-.22-.13-.21a2.67,2.67,0,1,0-4.78,2.4c.12.34,5.39,10.46,19.19,10.48,4.68,0,10.26-1.25,16.75-4.25,6.49,3,12.07,4.25,16.76,4.25,13.79,0,19.07-10.14,19.19-10.49A2.68,2.68,0,0,0,206.59,220.76Z"/><path class="cls-7" d="M141.51,189.55c.82,10.94,18.83,19.81,31.32,19.41,14-.44,30.24-11.25,29.34-19.41-1-9.51-14.31-14.88-28.81-14.88C161.89,174.67,140.62,177.57,141.51,189.55Z"/><path class="cls-8" d="M152.34,184.73a4,4,0,1,0,4-4A4,4,0,0,0,152.34,184.73Z"/><path class="cls-6" d="M285.66,129.6a2.69,2.69,0,0,1,.46-3.77h0s.55-.42,1.51-1.3h0a50.6,50.6,0,0,0,3.69-3.82h0a35.14,35.14,0,0,0,7.38-13.07h0a2.69,2.69,0,0,1,3.29-1.88h0a2.69,2.69,0,0,1,1.88,3.3h0c-3.54,12.59-14.29,20.81-14.45,21h0a2.71,2.71,0,0,1-1.66.57h0a2.7,2.7,0,0,1-2.11-1Z"/><path class="cls-6" d="M265.33,132.91a2.67,2.67,0,0,1,.57-3.74h0a48,48,0,0,0,5-4.44h0c2.64-2.7,5.39-6.37,6.16-9.6h0a2.69,2.69,0,0,1,3.26-1.95h0a2.68,2.68,0,0,1,1.94,3.25h0c-2.58,9.6-13.06,16.84-13.18,17.06h0a2.68,2.68,0,0,1-1.59.52h0a2.65,2.65,0,0,1-2.15-1.1Z"/><path class="cls-8" d="M299.29,128.56l-92.65,12.82s7.73,49.43,52.93,42.57C259.57,184,310.56,180.91,299.29,128.56Z"/><path class="cls-6" d="M280,130.7s5.09,35.6-16.73,40.32c0,0-29.83,9.82-37.37-33Z"/><path class="cls-8" d="M241.76,138s1.49,10.46-4.91,11.85c0,0-8.77,2.88-11-9.68Z"/><path class="cls-6" d="M204,141.78a2.67,2.67,0,0,1,2.25-3.05h0l102.89-15.35a2.67,2.67,0,0,1,3.05,2.25h0a2.67,2.67,0,0,1-2.25,3h0L207,144l-.4,0h0a2.69,2.69,0,0,1-2.65-2.28Z"/><path class="cls-6" d="M58,129.6a2.68,2.68,0,0,0-.45-3.77h0s-.55-.42-1.51-1.3h0a48.7,48.7,0,0,1-3.69-3.82h0A35,35,0,0,1,45,107.64h0a2.67,2.67,0,0,0-3.28-1.88h0a2.69,2.69,0,0,0-1.88,3.3h0c3.53,12.59,14.28,20.81,14.45,21h0a2.74,2.74,0,0,0,1.66.57h0a2.68,2.68,0,0,0,2.11-1Z"/><path class="cls-6" d="M78.36,132.91a2.67,2.67,0,0,0-.57-3.74h0a45.74,45.74,0,0,1-5-4.44h0c-2.64-2.7-5.4-6.37-6.17-9.6h0a2.68,2.68,0,0,0-3.25-1.95h0a2.68,2.68,0,0,0-2,3.25h0C64,126,74.49,133.27,74.62,133.49h0a2.67,2.67,0,0,0,1.58.52h0a2.66,2.66,0,0,0,2.16-1.1Z"/><path class="cls-8" d="M44.39,128.56l92.66,12.82S129.31,190.81,84.11,184C84.11,184,33.13,180.91,44.39,128.56Z"/><path class="cls-6" d="M63.72,130.7S58.62,166.3,80.44,171c0,0,29.84,9.82,37.38-33Z"/><path class="cls-8" d="M62.24,131.93s-1.49,10.45,4.92,11.84c0,0,8.76,2.89,11-9.68Z"/><path class="cls-6" d="M139.7,141.78a2.67,2.67,0,0,0-2.25-3.05h0L34.56,123.38a2.67,2.67,0,0,0-3.05,2.25h0a2.67,2.67,0,0,0,2.25,3h0L136.65,144a2.69,2.69,0,0,0,.4,0h0a2.69,2.69,0,0,0,2.65-2.28Z"/></svg>