<svg id="Layer_1" data-name="Layer 1" xmlns="http://www.w3.org/2000/svg" viewBox="0 0 343.69 208.06"><defs><style>.cls-1,.cls-7{fill:#adaeb2;}.cls-2{fill:#f1f1ef;}.cls-3{fill:#b6b8bc;}.cls-4{fill:#171717;}.cls-5{fill:#1a1a1a;}.cls-6{fill:#fff;}.cls-7{fill-rule:evenodd;}.cls-8{fill:#f5adcd;}</style></defs><path class="cls-1" d="M143,108.89l.5-8.46c-3-.5-3.25.13-6.25-3.53-4.48-5.48-20.11-15.77-25.61-19.37-9-5.89-18.8-8.77-29.38-10.46-20.12-3.2-41.23,8.21-57,20-8.16,6.14-16.83,13.23-21.7,22.31A23,23,0,0,0,.14,119.89a15.93,15.93,0,0,0,.21,5.49,23.23,23.23,0,0,0,17.53,19,20,20,0,0,0,.4,4.07c0,.18,0,.35,0,.53a23.23,23.23,0,0,0,23.24,23.23l.51,0a25.09,25.09,0,0,0,42.06,16.44,50.09,50.09,0,0,0,9.17-5c6.82-4.68,13.75-8.58,19.83-14.32,5.57-5.25,12.27-11.27,17.16-17.15C137.78,143,148.66,119.82,143,108.89Z" transform="translate(0 -56.87)"/><path class="cls-2" d="M119.05,115.17l.3-5c-1.78-.3-1.94.07-3.73-2.12-2.67-3.27-12-9.4-15.29-11.56C95,92.94,89.11,91.22,82.8,90.21c-12-1.91-24.61,4.9-34,12-4.87,3.67-10,7.9-12.95,13.32a13.69,13.69,0,0,0-2.08,6.25,9.29,9.29,0,0,0,.13,3.28,13.84,13.84,0,0,0,10.46,11.31,11.87,11.87,0,0,0,.24,2.44,3,3,0,0,0,0,.31A13.87,13.87,0,0,0,58.44,153l.3,0a15,15,0,0,0,25.11,9.82,30.34,30.34,0,0,0,5.48-3c4.07-2.79,8.2-5.12,11.83-8.54A128.62,128.62,0,0,0,111.41,141C115.92,135.54,122.41,121.7,119.05,115.17Z" transform="translate(0 -56.87)"/><path class="cls-1" d="M200.65,108.89l-.49-8.46c3-.5,3.24.13,6.24-3.53,4.48-5.48,20.11-15.77,25.62-19.37,9-5.89,18.79-8.77,29.37-10.46,20.13-3.2,41.24,8.21,57,20,8.16,6.14,16.83,13.23,21.7,22.31a23.08,23.08,0,0,1,3.48,10.47,15.91,15.91,0,0,1-.22,5.49,23.22,23.22,0,0,1-17.53,19,20,20,0,0,1-.39,4.07c0,.18,0,.35,0,.53a23.23,23.23,0,0,1-23.23,23.23l-.51,0a25.09,25.09,0,0,1-42.06,16.44,50.5,50.5,0,0,1-9.18-5c-6.82-4.68-13.74-8.58-19.83-14.32-5.56-5.25-12.26-11.27-17.16-17.15C205.9,143,195,119.82,200.65,108.89Z" transform="translate(0 -56.87)"/><path class="cls-2" d="M224.63,115.17l-.29-5c1.78-.3,1.93.07,3.72-2.12,2.68-3.27,12-9.4,15.29-11.56,5.37-3.51,11.22-5.23,17.54-6.24,12-1.91,24.61,4.9,34,12,4.87,3.67,10,7.9,13,13.32a13.81,13.81,0,0,1,2.08,6.25,9.53,9.53,0,0,1-.13,3.28,13.85,13.85,0,0,1-10.47,11.31,11.86,11.86,0,0,1-.23,2.44c0,.1,0,.2,0,.31A13.87,13.87,0,0,1,285.25,153l-.31,0a15,15,0,0,1-25.11,9.82,30.27,30.27,0,0,1-5.47-3c-4.07-2.79-8.21-5.12-11.84-8.54A128.49,128.49,0,0,1,232.28,141C227.76,135.54,221.27,121.7,224.63,115.17Z" transform="translate(0 -56.87)"/><path class="cls-3" d="M174.9,83.79c-54.86.33-99.1,41.13-98.8,91.15s45,90.31,99.88,90,99.1-41.13,98.8-91.16S229.77,83.46,174.9,83.79Z" transform="translate(0 -56.87)"/><path class="cls-4" d="M149.65,194.8c-1.14,15,7,18,19.29,19s24-.61,25.11-15.6-8.74-37.74-21-38.67S150.78,179.81,149.65,194.8Z" transform="translate(0 -56.87)"/><path class="cls-5" d="M221.38,158.89a1.64,1.64,0,0,1,1.46-1.8h0a25.31,25.31,0,0,0,4.46-1h0c2.43-.74,5.09-2.09,6.25-3.9h0a1.63,1.63,0,0,1,2.27-.46h0a1.63,1.63,0,0,1,.46,2.26h0c-4,5.66-13,6.21-13.11,6.32H223a1.64,1.64,0,0,1-1.63-1.47Z" transform="translate(0 -56.87)"/><path class="cls-5" d="M217.1,153.62a1.64,1.64,0,0,1,.77-2.18h0s.44-.21,1.16-.62h0a28.48,28.48,0,0,0,2.71-1.8h0c2-1.52,4.08-3.69,4.56-5.78h0a1.63,1.63,0,0,1,2-1.2h0a1.64,1.64,0,0,1,1.2,2h0c-1.84,6.67-10.11,10.23-10.2,10.38h0a1.56,1.56,0,0,1-.7.16h0a1.63,1.63,0,0,1-1.48-.93Z" transform="translate(0 -56.87)"/><path class="cls-6" d="M226.44,165.76a19,19,0,1,1-19-19A19,19,0,0,1,226.44,165.76Z" transform="translate(0 -56.87)"/><path class="cls-4" d="M219.32,165.75a11.87,11.87,0,1,1-11.85-11.9A11.87,11.87,0,0,1,219.32,165.75Z" transform="translate(0 -56.87)"/><path class="cls-6" d="M203.42,158.35a3.24,3.24,0,1,1-3.23-3.24A3.24,3.24,0,0,1,203.42,158.35Z" transform="translate(0 -56.87)"/><path class="cls-5" d="M122.3,158.89a1.63,1.63,0,0,0-1.46-1.8h0a25.7,25.7,0,0,1-4.46-1h0c-2.43-.74-5.08-2.09-6.25-3.9h0a1.62,1.62,0,0,0-2.26-.46h0a1.62,1.62,0,0,0-.46,2.26h0c4,5.66,13,6.21,13.1,6.32h.16a1.64,1.64,0,0,0,1.63-1.47Z" transform="translate(0 -56.87)"/><path class="cls-5" d="M126.59,153.62a1.63,1.63,0,0,0-.78-2.18h0s-.43-.21-1.15-.62h0a28.46,28.46,0,0,1-2.72-1.8h0c-2-1.52-4.07-3.69-4.56-5.78h0a1.62,1.62,0,0,0-2-1.2h0a1.62,1.62,0,0,0-1.2,2h0c1.83,6.67,10.11,10.23,10.2,10.38h0a1.56,1.56,0,0,0,.7.16h0a1.65,1.65,0,0,0,1.48-.93Z" transform="translate(0 -56.87)"/><path class="cls-6" d="M155.22,165.76a19,19,0,1,1-18.95-19A19,19,0,0,1,155.22,165.76Z" transform="translate(0 -56.87)"/><path class="cls-4" d="M148.1,165.75a11.87,11.87,0,1,1-11.85-11.9A11.87,11.87,0,0,1,148.1,165.75Z" transform="translate(0 -56.87)"/><path class="cls-6" d="M132.2,158.35a3.24,3.24,0,1,1-3.23-3.24A3.24,3.24,0,0,1,132.2,158.35Z" transform="translate(0 -56.87)"/><path class="cls-6" d="M163.58,173.92c1.21.6,2.83-.21,3.62-1.8s.45-3.37-.76-4-2.83.21-3.62,1.8S162.37,173.32,163.58,173.92Z" transform="translate(0 -56.87)"/><path class="cls-4" d="M170.38,227.47l0-13.22c0-1.22.66-2.22,1.49-2.23h0c.83,0,1.5,1,1.5,2.2h0l.06,13.22c0,1.22-.66,2.23-1.49,2.23h0c-.82,0-1.49-1-1.5-2.2Z" transform="translate(0 -56.87)"/><path class="cls-4" d="M146.85,225.54a1.49,1.49,0,0,1,.11-2.11h0a1.49,1.49,0,0,1,2.11.1h0s.26.29.85.79h0a18.62,18.62,0,0,0,2.6,1.87h0a18.83,18.83,0,0,0,9.73,2.73h0a22,22,0,0,0,8.94-2h0a1.5,1.5,0,0,1,2,.77h0a1.49,1.49,0,0,1-.77,2h0a25,25,0,0,1-10.15,2.27h0a21.89,21.89,0,0,1-15.4-6.38Z" transform="translate(0 -56.87)"/><path class="cls-4" d="M144.54,226.89a4.52,4.52,0,0,1-.12-1.07h0a4.33,4.33,0,0,1,1-2.88h0a5.88,5.88,0,0,1,4.29-1.78h0a1.49,1.49,0,0,1,1.59,1.4h0a1.51,1.51,0,0,1-1.41,1.59h0a3.07,3.07,0,0,0-2.21.75h0a1.34,1.34,0,0,0-.3.92h0a1.94,1.94,0,0,0,0,.27h0v0h0a1.5,1.5,0,0,1-1.07,1.83h0a1.74,1.74,0,0,1-.39,0h0a1.49,1.49,0,0,1-1.44-1.12Z" transform="translate(0 -56.87)"/><path class="cls-4" d="M171.28,229.65a1.5,1.5,0,0,1-.77-2h0a1.5,1.5,0,0,1,2-.77h0a22,22,0,0,0,8.94,2h0a19.13,19.13,0,0,0,12.34-4.6h0a8.3,8.3,0,0,0,.84-.79h0a1.5,1.5,0,0,1,2.12-.1h0a1.49,1.49,0,0,1,.1,2.11h0a21.86,21.86,0,0,1-15.4,6.38h0a25,25,0,0,1-10.15-2.27Z" transform="translate(0 -56.87)"/><path class="cls-4" d="M197.32,228a1.5,1.5,0,0,1-1.07-1.83h0s0,0,0,0h0a1.8,1.8,0,0,0,0-.28h0a1.37,1.37,0,0,0-.31-.92h0c-.23-.26-.74-.65-2.21-.75h0a1.5,1.5,0,0,1-1.4-1.59h0a1.5,1.5,0,0,1,1.58-1.41h0a6,6,0,0,1,4.3,1.79h0a4.38,4.38,0,0,1,1,2.88h0a4.49,4.49,0,0,1-.12,1.06h0A1.51,1.51,0,0,1,197.7,228h0a1.65,1.65,0,0,1-.38,0Z" transform="translate(0 -56.87)"/><path class="cls-7" d="M189.89,86C184,83.86,178,88,177.75,92.57c-1.35,0-10.95-.8-15.18-5.32s-6.64-8.65-8.53-8.42c1.59-2,5.18-3.4,7.53-1.85a16,16,0,0,1-6.13-9.1c-.66-3.13-3.32-8.44-7.21-7.71,1.15-3.37,14.26-5.68,26.33,4.35a11.37,11.37,0,0,1-1.62-7.65c1.55.79,5.7,1.65,10.22,6.15S191.33,76.39,189.89,86Z" transform="translate(0 -56.87)"/><path class="cls-8" d="M218.55,193.47c0,5.72,5.77,10.36,12.92,10.37s12.95-4.61,13-10.33-5.78-10.37-12.92-10.38S218.56,187.75,218.55,193.47Z" transform="translate(0 -56.87)"/><path class="cls-8" d="M99.25,193.47c0,5.72,5.78,10.36,12.93,10.37s12.95-4.61,13-10.33-5.78-10.37-12.92-10.38S99.27,187.75,99.25,193.47Z" transform="translate(0 -56.87)"/></svg>