<svg id="Layer_1" data-name="Layer 1" xmlns="http://www.w3.org/2000/svg" viewBox="0 0 249.74 321.79"><defs><style>.cls-1{fill:#f89b1c;}.cls-2{fill:#6b4242;}.cls-3{fill:#f9b217;}.cls-4{fill:#e38a25;}.cls-5{fill:#faf3af;}.cls-6{fill:#171717;}.cls-7{fill:#fff;}.cls-8{fill:#ee7399;}</style></defs><path class="cls-1" d="M190.25,76.8c-1.54,5.8-.41,11.45,2.53,12.61h0c2.94,1.15,6.59-2.61,8.13-8.42l12.82-48c1.55-5.81.42-11.45-2.53-12.6h0c-2.94-1.16-6.58,2.61-8.13,8.4Z" transform="translate(-46.97 0)"/><path class="cls-2" d="M197.32,11.39A16.2,16.2,0,1,0,217.58.73,16.18,16.18,0,0,0,197.32,11.39Z" transform="translate(-46.97 0)"/><path class="cls-1" d="M153.44,76.8c1.54,5.8.41,11.45-2.53,12.61h0c-2.95,1.15-6.59-2.61-8.14-8.42L130,33c-1.55-5.81-.42-11.45,2.52-12.6h0c3-1.16,6.59,2.61,8.13,8.4Z" transform="translate(-46.97 0)"/><path class="cls-2" d="M146.36,11.39A16.2,16.2,0,1,1,126.1.73,16.18,16.18,0,0,1,146.36,11.39Z" transform="translate(-46.97 0)"/><path class="cls-3" d="M99,115.64c-18.08-1.46-36.58-15-43.48-28.6-5.62-11-13.31-44.26,9.9-37.37,17.08,5.07,26,10.51,36.29,25.79,5.22,7.72,18.72,38.86,2.39,41.34l-1.06-.27" transform="translate(-46.97 0)"/><path class="cls-4" d="M90.44,100.88c-9.55-.79-19.32-8-23-15.15-3-5.84-7-23.4,5.27-19.74,9,2.69,13.69,5.57,19.15,13.66,2.74,4.08,9.85,20.55,1.22,21.85l-.55-.15" transform="translate(-46.97 0)"/><path class="cls-3" d="M244.68,115.64c18.08-1.46,36.58-15,43.48-28.6,5.63-11,13.32-44.26-9.9-37.37C261.19,54.74,252.31,60.18,242,75.46c-5.22,7.72-18.73,38.86-2.4,41.34l1.06-.27" transform="translate(-46.97 0)"/><path class="cls-4" d="M253.24,100.88c9.55-.79,19.32-8,22.95-15.15,3-5.84,7-23.4-5.27-19.74-9,2.69-13.69,5.57-19.14,13.66-2.75,4.08-9.86,20.55-1.23,21.85l.56-.15" transform="translate(-46.97 0)"/><path class="cls-3" d="M47,167.78C46,108.88,102.86,61.12,171.8,61.12S299.69,109,296.6,167.78c-3.6,68.37-52.48,154-121.41,154S48.15,238.14,47,167.78Z" transform="translate(-46.97 0)"/><path class="cls-1" d="M168.62,105.32c-2.18,8.83-12,14-22,11.55s-16.26-11.59-14.08-20.43,12-14,22-11.55S170.8,96.49,168.62,105.32Z" transform="translate(-46.97 0)"/><path class="cls-1" d="M244.74,105.52c-1.41,5.74-7.81,9.11-14.28,7.51s-10.57-7.54-9.15-13.28,7.81-9.1,14.28-7.51S246.16,99.78,244.74,105.52Z" transform="translate(-46.97 0)"/><path class="cls-1" d="M191.62,87.72c17.72,4.36,34.83-1.47,41.32-13.21A145,145,0,0,0,171.8,61.12c-3.37,0-6.7.15-10,.37C164.46,73.18,176,83.87,191.62,87.72Z" transform="translate(-46.97 0)"/><path class="cls-1" d="M258.7,90.38A17.87,17.87,0,0,0,254,98.71c-2.6,10.54,4.93,21.46,16.82,24.39A23.81,23.81,0,0,0,285.85,122,106.25,106.25,0,0,0,258.7,90.38Z" transform="translate(-46.97 0)"/><path class="cls-1" d="M125,82.42c10,2.45,19.79-2.72,22-11.56a15,15,0,0,0-.15-7.61,139.63,139.63,0,0,0-34,10.42A19.63,19.63,0,0,0,125,82.42Z" transform="translate(-46.97 0)"/><path class="cls-5" d="M63.83,235.66c22.3,47.13,64.3,86.13,111.36,86.13,28.18,0,53-14.32,72.75-35.91a235.25,235.25,0,0,0,21.91-30.29,205,205,0,0,0,13-27.08,121.67,121.67,0,0,0-13.41-6.58C205.36,200.09,118,191.33,63.83,235.66Z" transform="translate(-46.97 0)"/><path class="cls-6" d="M168.43,229.8c0,3.72-2,6.74-4.5,6.74s-4.5-3-4.5-6.74,2-6.74,4.5-6.74S168.43,226.08,168.43,229.8Z" transform="translate(-46.97 0)"/><path class="cls-6" d="M184.25,229.8c0,3.72-2,6.74-4.5,6.74s-4.49-3-4.49-6.74,2-6.74,4.49-6.74S184.25,226.08,184.25,229.8Z" transform="translate(-46.97 0)"/><path class="cls-6" d="M242.87,149.9a2,2,0,0,1,1.32-2.42h0s.24-.07.78-.3h0a14.19,14.19,0,0,0,2.18-1.18h0a15.3,15.3,0,0,0,5.31-5.87h0a1.94,1.94,0,0,1,2.61-.85h0a2,2,0,0,1,.85,2.62h0a19,19,0,0,1-10.64,9.32h0a2,2,0,0,1-.54.08h0a2,2,0,0,1-1.87-1.4Z" transform="translate(-46.97 0)"/><path class="cls-6" d="M236.76,142.25a1.94,1.94,0,0,1,1.1-2.53h0s.29-.11.87-.4h0A19.06,19.06,0,0,0,241,138h0a15.83,15.83,0,0,0,5.16-5.53h0a1.94,1.94,0,0,1,2.62-.82h0a2,2,0,0,1,.83,2.62h0c-3.48,6.5-10.2,9-10.37,9.11h0a2,2,0,0,1-.71.13h0a2,2,0,0,1-1.81-1.23Z" transform="translate(-46.97 0)"/><path class="cls-7" d="M247.27,158.54c0,15-9.09,27.18-20.3,27.18s-20.29-12.16-20.29-27.18,9.08-27.17,20.29-27.17S247.27,143.53,247.27,158.54Z" transform="translate(-46.97 0)"/><path class="cls-6" d="M239.15,158.54c0,9-5.45,16.31-12.18,16.31s-12.17-7.3-12.17-16.31,5.45-16.3,12.17-16.3S239.15,149.54,239.15,158.54Z" transform="translate(-46.97 0)"/><path class="cls-7" d="M225.88,149.18c0,2.82-1.71,5.11-3.81,5.11s-3.82-2.29-3.82-5.11,1.71-5.1,3.82-5.1S225.88,146.36,225.88,149.18Z" transform="translate(-46.97 0)"/><path class="cls-6" d="M100.81,149.9a1.94,1.94,0,0,0-1.31-2.42h0a8.09,8.09,0,0,1-.78-.3h0A13.74,13.74,0,0,1,96.54,146h0a15.32,15.32,0,0,1-5.32-5.87h0a1.94,1.94,0,0,0-2.61-.85h0a2,2,0,0,0-.84,2.62h0a19,19,0,0,0,10.64,9.32h0a2.09,2.09,0,0,0,.55.08h0a1.93,1.93,0,0,0,1.86-1.4Z" transform="translate(-46.97 0)"/><path class="cls-6" d="M106.93,142.25a2,2,0,0,0-1.1-2.53h0s-.3-.11-.88-.4h0a19.07,19.07,0,0,1-2.29-1.35h0a15.85,15.85,0,0,1-5.17-5.53h0a1.94,1.94,0,0,0-2.62-.82h0a1.94,1.94,0,0,0-.82,2.62h0c3.47,6.5,10.2,9,10.36,9.11h0a1.94,1.94,0,0,0,.71.13h0a2,2,0,0,0,1.81-1.23Z" transform="translate(-46.97 0)"/><path class="cls-7" d="M96.42,158.54c0,15,9.09,27.18,20.29,27.18S137,173.56,137,158.54s-9.09-27.17-20.3-27.17S96.42,143.53,96.42,158.54Z" transform="translate(-46.97 0)"/><path class="cls-6" d="M128.89,158.54c0,9-5.45,16.31-12.17,16.31s-12.18-7.3-12.18-16.31,5.45-16.3,12.18-16.3S128.89,149.54,128.89,158.54Z" transform="translate(-46.97 0)"/><path class="cls-7" d="M115.62,149.18c0,2.82-1.71,5.11-3.81,5.11S108,152,108,149.18s1.7-5.1,3.81-5.1S115.62,146.36,115.62,149.18Z" transform="translate(-46.97 0)"/><path class="cls-6" d="M170.79,289.79l-10.95-9.68a2,2,0,0,1-.17-2.75h0a1.94,1.94,0,0,1,2.74-.17h0l9.6,8.5,9.2-8.9a1.93,1.93,0,0,1,2.75,0h0a2,2,0,0,1,0,2.74h0l-10.5,10.15a1.9,1.9,0,0,1-1.35.55h0a1.88,1.88,0,0,1-1.28-.49Z" transform="translate(-46.97 0)"/><path class="cls-8" d="M83.93,198.74c8.06-5.77,19.67-5.81,25.93-.09s4.79,15-3.27,20.79-19.66,5.82-25.92.1S75.88,204.51,83.93,198.74Z" transform="translate(-46.97 0)"/><path class="cls-8" d="M259.75,198.74c-8.05-5.77-19.66-5.81-25.92-.09s-4.79,15,3.26,20.79,19.67,5.82,25.92.1S267.81,204.51,259.75,198.74Z" transform="translate(-46.97 0)"/></svg>