<svg id="Layer_1" data-name="Layer 1" xmlns="http://www.w3.org/2000/svg" viewBox="0 0 271.39 321.79"><defs><style>.cls-1{fill:#e6e6e6;}.cls-2{fill:#b3b3b3;}.cls-3{fill:#fff;}.cls-4{fill:#1a1a1a;}.cls-5{fill:#171717;}.cls-6{fill:#696969;}.cls-7{fill:#f5adcd;}</style></defs><path class="cls-1" d="M126,73.79c-9.35-5-26.9-19.64-36.73-28.39-6.66-5.92-13.41-15.57-21-8-5.36,5.3-5.08,18.25-5.08,25.24,0,16.56,6.46,33.71,23.94,38.58,14.83,4.12,35.18-5.06,35.44-21.91" transform="translate(-36.15 0)"/><path class="cls-2" d="M109.39,73.46c-5.17-2.77-14.87-10.85-20.31-15.69-3.68-3.28-7.42-8.62-11.64-4.43-3,2.93-2.8,10.09-2.8,14,0,9.16,3.57,18.64,13.23,21.33,8.2,2.28,19.45-2.79,19.6-12.11" transform="translate(-36.15 0)"/><path class="cls-1" d="M221.19,73.79c9.35-5,26.9-19.64,36.73-28.39,6.66-5.92,13.41-15.57,21-8,5.36,5.3,5.08,18.25,5.08,25.24,0,16.56-6.46,33.71-23.94,38.58-14.82,4.12-35.18-5.06-35.44-21.91" transform="translate(-36.15 0)"/><path class="cls-2" d="M237.84,73.46c5.17-2.77,14.88-10.85,20.32-15.69,3.67-3.28,7.41-8.62,11.63-4.43,3,2.93,2.8,10.09,2.8,14,0,9.16-3.57,18.64-13.23,21.33-8.2,2.28-19.45-2.79-19.6-12.11" transform="translate(-36.15 0)"/><path class="cls-1" d="M304.61,173C291.76,68,193.72,46.58,193.72,46.58a49.5,49.5,0,0,0-14.93-1.09,52.69,52.69,0,0,0-15.35,1.09S60.33,68,46.82,173c0,0-34.78,144.48,129.39,148.71v.11c.94,0,1.83,0,2.76-.06s1.9.06,2.89.06v-.12C337.64,317.28,304.61,173,304.61,173Z" transform="translate(-36.15 0)"/><path class="cls-3" d="M142.13,129.56c2,15.29-5.24,28.82-16.08,30.21s-21.22-9.88-23.18-25.18,5.23-28.82,16.07-30.21S140.17,114.26,142.13,129.56Z" transform="translate(-36.15 0)"/><path class="cls-4" d="M134,130.6c1.15,9-3.07,16.89-9.43,17.71s-12.44-5.79-13.59-14.76,3.07-16.9,9.42-17.72S132.86,121.63,134,130.6Z" transform="translate(-36.15 0)"/><path class="cls-3" d="M120.68,121.71c.35,2.7-.93,5.09-2.84,5.34s-3.75-1.75-4.1-4.45.93-5.09,2.84-5.34S120.33,119,120.68,121.71Z" transform="translate(-36.15 0)"/><path class="cls-3" d="M201.55,129.56c-2,15.29,5.24,28.82,16.08,30.21s21.23-9.88,23.19-25.18-5.24-28.82-16.08-30.21S203.52,114.26,201.55,129.56Z" transform="translate(-36.15 0)"/><path class="cls-4" d="M209.68,130.6c-1.15,9,3.07,16.89,9.42,17.71s12.45-5.79,13.6-14.76-3.07-16.9-9.43-17.72S210.83,121.63,209.68,130.6Z" transform="translate(-36.15 0)"/><path class="cls-3" d="M212.43,121.71c-.34,2.7.93,5.09,2.84,5.34s3.75-1.75,4.1-4.45-.93-5.09-2.84-5.34S212.78,119,212.43,121.71Z" transform="translate(-36.15 0)"/><path class="cls-5" d="M199.94,48.43c1.29,1.63.81,7.17.55,9.14a17.09,17.09,0,0,1-3.22,7.82,28.48,28.48,0,0,1-13.44,9.84,44.91,44.91,0,0,1-9.78,2.24c-15,1.65-35.24-.78-42.57-16.06a34.56,34.56,0,0,1-3.39-11.83c-.66-10.8,2.81-22.3,10.08-30.32A59.12,59.12,0,0,1,182.89.05c13,.68,26.74,4.68,35.46,14.91A63.48,63.48,0,0,1,232,43.43a79.39,79.39,0,0,1,1.12,19.41,191.6,191.6,0,0,0-32.8-14.41" transform="translate(-36.15 0)"/><path class="cls-6" d="M171.9.89c-2.32.42-4.59.94-6.71,1.53a58.67,58.67,0,0,0-27,16.84,37.45,37.45,0,0,0-2.9,3.72c-.09,18.52,17.26,33.72,33.14,35.48,10.19,1.46,21.39,3.92,31.48,1.72a16.22,16.22,0,0,0,.6-2.61c.1-.74.23-2,.28-3.32C181.8,44.54,167.76,22.93,171.9.89Z" transform="translate(-36.15 0)"/><path class="cls-6" d="M206.91,6c-4.64,14-4.9,28.69-3.38,43.52,3.25,1.14,6.51,2.38,9.81,3.75A78.14,78.14,0,0,1,226.7,27.84,61.09,61.09,0,0,0,218.35,15,37.3,37.3,0,0,0,206.91,6Z" transform="translate(-36.15 0)"/><path class="cls-6" d="M205,50.06l.77.28-.13-.23Z" transform="translate(-36.15 0)"/><path class="cls-7" d="M75,145c-10.7,0-19.38,7.14-19.38,15.94s8.68,16,19.38,16,19.39-7.14,19.39-16S85.67,145,75,145Z" transform="translate(-36.15 0)"/><path class="cls-7" d="M268.72,145c-10.7,0-19.38,7.14-19.38,15.94s8.68,16,19.38,16,19.39-7.14,19.39-16S279.43,145,268.72,145Z" transform="translate(-36.15 0)"/><path class="cls-1" d="M176.15,321.68h.06v.11h0v-.11Z" transform="translate(-36.15 0)"/><path class="cls-1" d="M179,321.73c1,0,1.9.06,2.89.06h0c-1,0-1.92,0-2.88-.06Z" transform="translate(-36.15 0)"/><path class="cls-6" d="M176.23,321.79h0c.93,0,1.82,0,2.74-.06h0C178.05,321.75,177.16,321.79,176.23,321.79Z" transform="translate(-36.15 0)"/><path class="cls-6" d="M307.11,215.69c-22.42-30.66-73.88-53-129-51.66C118.67,165.43,73,194.89,45.43,226.4c6.4,41.62,34.05,92.77,130.72,95.28h.08v.11c.93,0,1.82,0,2.74-.06h0c1,0,1.89.06,2.88.06v-.12C281.66,318.86,304,258.62,307.11,215.69Z" transform="translate(-36.15 0)"/><path class="cls-5" d="M161.8,260.56c0,3.59-4.12,6.51-9.22,6.51s-9.22-2.92-9.22-6.51,4.13-6.51,9.22-6.51S161.8,257,161.8,260.56Z" transform="translate(-36.15 0)"/><path class="cls-5" d="M207.92,260.56c0,3.59-4.13,6.51-9.22,6.51s-9.23-2.92-9.23-6.51,4.13-6.51,9.23-6.51S207.92,257,207.92,260.56Z" transform="translate(-36.15 0)"/><path class="cls-5" d="M221.31,315.38a2,2,0,0,1,1.26-2.54h0s.35-.11,1.08-.43h0a29.93,29.93,0,0,0,3.06-1.54h0a42.18,42.18,0,0,0,9.43-7.34h0c6.85-7.11,13.78-18.94,13.79-38.5h0c0-1.57,0-3.18-.13-4.84h0a2,2,0,0,1,1.89-2.11h0A2,2,0,0,1,253.8,260h0c.09,1.73.14,3.42.14,5.06h0c0,41.24-29.78,51.6-30.09,51.62h0a2,2,0,0,1-.64.1h0a2,2,0,0,1-1.9-1.37Z" transform="translate(-36.15 0)"/><path class="cls-5" d="M261.61,264.11a14.4,14.4,0,0,0-9.92-4h0a18.48,18.48,0,0,0-8.91,2.5h0c-.47.28-.67.42-.67.42h0a2,2,0,0,1-2.81-.48h0a2,2,0,0,1,.48-2.8h0a22.32,22.32,0,0,1,11.9-3.66h0a18.51,18.51,0,0,1,12.6,5h0a2,2,0,0,1,.16,2.83h0a2,2,0,0,1-1.5.67h0a2,2,0,0,1-1.34-.51Z" transform="translate(-36.15 0)"/><path class="cls-5" d="M80.21,184.86s-13.56-2.15-36.34,12.66c-.18,4.58-.19,9.62.11,15A117.5,117.5,0,0,1,80.21,184.86Z" transform="translate(-36.15 0)"/><path class="cls-5" d="M46,177.17c-.47,2.65-1.05,6.44-1.5,11.12A121,121,0,0,1,78.6,176.91S68.07,171.87,46,177.17Z" transform="translate(-36.15 0)"/><path class="cls-5" d="M270.5,178.62a116.45,116.45,0,0,1,37,28.56c.12-5.79-.08-11.11-.42-15.75C284.15,176.45,270.5,178.62,270.5,178.62Z" transform="translate(-36.15 0)"/><path class="cls-5" d="M304.32,170.82c-21.81-5.14-32.22-.16-32.22-.16a120.85,120.85,0,0,1,34,11.33c-.75-5.67-1.51-9-1.51-9C304.52,172.25,304.41,171.54,304.32,170.82Z" transform="translate(-36.15 0)"/><path class="cls-1" d="M37.8,239.33c.21.25.4.51.6.76C38.2,239.84,38,239.58,37.8,239.33Z" transform="translate(-36.15 0)"/><path class="cls-1" d="M39.24,241.22c.26.36.51.74.76,1.11C39.75,242,39.5,241.58,39.24,241.22Z" transform="translate(-36.15 0)"/><path class="cls-6" d="M38.4,240.09c.29.37.57.74.84,1.13C39,240.83,38.69,240.46,38.4,240.09Z" transform="translate(-36.15 0)"/><path class="cls-6" d="M40,242.33c.17.25.33.52.49.78C40.33,242.85,40.17,242.58,40,242.33Z" transform="translate(-36.15 0)"/><path class="cls-6" d="M36.15,237.55c.58.56,1.12,1.16,1.65,1.78C37.27,238.71,36.73,238.11,36.15,237.55Z" transform="translate(-36.15 0)"/></svg>