<svg id="Layer_1" data-name="Layer 1" xmlns="http://www.w3.org/2000/svg" viewBox="0 0 343.69 288.54"><defs><style>.cls-1{fill:#171717;}.cls-2{fill:#f1f1ef;}.cls-3{fill:#a7a8ab;}.cls-4{fill:#fff;}.cls-5{fill:#1a1a1a;}.cls-6{fill:#f298bf;}</style></defs><path class="cls-1" d="M94.31,68A47.27,47.27,0,1,1,48,19.78,47.27,47.27,0,0,1,94.31,68Z" transform="translate(0.22 -19.77)"/><path class="cls-1" d="M343.46,73.07a47.27,47.27,0,1,1-46.3-48.22A47.26,47.26,0,0,1,343.46,73.07Z" transform="translate(0.22 -19.77)"/><path class="cls-2" d="M329.22,171.84C327.65,249,255.81,310,168.79,308.26S12.46,242.55,14,165.42,87.43,27.23,174.47,29,330.78,94.71,329.22,171.84Z" transform="translate(0.22 -19.77)"/><path class="cls-3" d="M146.35,92.47c19.42,18.14,16.36,53-6.83,77.79s-57.73,30.25-77.14,12.12-16.37-53,6.83-77.79S126.93,74.34,146.35,92.47Z" transform="translate(0.22 -19.77)"/><path class="cls-3" d="M199,90.33c-20.34,17.51-18.69,52.78,3.7,78.79s57,32.9,77.35,15.4,18.69-52.78-3.7-78.79S219.3,72.83,199,90.33Z" transform="translate(0.22 -19.77)"/><path class="cls-1" d="M248.74,116a2.3,2.3,0,0,1-2.27-2.35h0a2.3,2.3,0,0,1,2.34-2.28h0c1.11,0,2.23.05,3.38,0h0a29.34,29.34,0,0,0,9.06-1.1h0c4.21-1.35,6.37-3.87,10.19-6.82h0a2.3,2.3,0,0,1,3.24.42h0a2.3,2.3,0,0,1-.42,3.23h0c-3.32,2.52-6.11,5.79-11.58,7.58h0A34.44,34.44,0,0,1,252.19,116h0c-1.2,0-2.36,0-3.45,0Z" transform="translate(0.22 -19.77)"/><path class="cls-1" d="M253.23,120.64h0a2.33,2.33,0,0,1-1.57-2.88h0a2.3,2.3,0,0,1,2.87-1.56h0c3.68,1.08,7.73,2.3,11.51,2.29h.76c4.42-.2,7.18-2,11.64-3.89h0a2.31,2.31,0,0,1,3,1.27h0a2.32,2.32,0,0,1-1.27,3h0c-3.86,1.53-7.43,4-13.22,4.22H266c-4.73,0-9.17-1.42-12.81-2.48Z" transform="translate(0.22 -19.77)"/><path class="cls-4" d="M265.55,136.14a30.21,30.21,0,1,1-30.15-30.27A30.21,30.21,0,0,1,265.55,136.14Z" transform="translate(0.22 -19.77)"/><path class="cls-5" d="M254.23,136.12a18.89,18.89,0,1,1-18.85-18.93A18.89,18.89,0,0,1,254.23,136.12Z" transform="translate(0.22 -19.77)"/><path class="cls-4" d="M228.93,124.35a5.15,5.15,0,1,1-5.14-5.16A5.15,5.15,0,0,1,228.93,124.35Z" transform="translate(0.22 -19.77)"/><path class="cls-1" d="M94.51,118.73a2.31,2.31,0,0,0,2.27-2.36h0a2.31,2.31,0,0,0-2.35-2.27h0c-1.1,0-2.23.05-3.37,0h0A29.4,29.4,0,0,1,82,113h0c-4.2-1.35-6.37-3.87-10.18-6.83h0a2.3,2.3,0,0,0-3.24.42h0a2.31,2.31,0,0,0,.42,3.24h0c3.32,2.52,6.11,5.79,11.58,7.58h0a34.75,34.75,0,0,0,10.49,1.32h0c1.2,0,2.36,0,3.45,0Z" transform="translate(0.22 -19.77)"/><path class="cls-1" d="M90,123.38h0a2.31,2.31,0,0,0,1.57-2.87h0a2.31,2.31,0,0,0-2.88-1.57h0C85,120,81,121.25,77.21,121.23h-.76c-4.42-.19-7.18-2-11.64-3.88h0a2.3,2.3,0,0,0-3,1.26h0a2.33,2.33,0,0,0,1.27,3h0c3.86,1.53,7.43,4,13.22,4.21h0l.92,0h0c4.73,0,9.17-1.42,12.81-2.49Z" transform="translate(0.22 -19.77)"/><path class="cls-4" d="M138.1,138.89A30.2,30.2,0,1,1,108,108.62,30.21,30.21,0,0,1,138.1,138.89Z" transform="translate(0.22 -19.77)"/><path class="cls-5" d="M126.78,138.87a18.88,18.88,0,1,1-18.85-18.93A18.88,18.88,0,0,1,126.78,138.87Z" transform="translate(0.22 -19.77)"/><path class="cls-4" d="M101.49,127.09a5.15,5.15,0,1,1-5.14-5.15A5.15,5.15,0,0,1,101.49,127.09Z" transform="translate(0.22 -19.77)"/><path class="cls-1" d="M141.65,192c-.29,11.62,13.07,26.29,31.06,25.36,20.17-1,28.94-14.95,28.89-26.59,0-13.59-12.37-21.4-28.92-21.06S142,176.14,141.65,192Z" transform="translate(0.22 -19.77)"/><path class="cls-4" d="M149.54,183.91a5.77,5.77,0,1,0,5.64-5.88A5.76,5.76,0,0,0,149.54,183.91Z" transform="translate(0.22 -19.77)"/><path class="cls-1" d="M171.14,237.79a2.46,2.46,0,0,1-2.41-2.5h0l.43-21a2.45,2.45,0,0,1,2.51-2.4h0a2.46,2.46,0,0,1,2.41,2.5h0l-.43,21a2.45,2.45,0,0,1-2.45,2.4h-.06Z" transform="translate(0.22 -19.77)"/><path class="cls-1" d="M147,236.74a17,17,0,0,1-2.64-5.62h0a2.47,2.47,0,0,1,1.85-3h0a2.46,2.46,0,0,1,2.94,1.85h0s.08.38.37,1.13h0a12.76,12.76,0,0,0,1.48,2.74h0a8.33,8.33,0,0,0,7.19,3.73h0c2.69,0,6.47-1,11.56-4.12h0a2.44,2.44,0,0,1,3.37.8h0a2.45,2.45,0,0,1-.81,3.38h0c-5.58,3.43-10.21,4.84-14.12,4.85h-.09a13.34,13.34,0,0,1-11.1-5.79Z" transform="translate(0.22 -19.77)"/><path class="cls-1" d="M186.52,243.68c-4.26,0-9.48-1.71-16.22-6h0a2.46,2.46,0,0,1-.75-3.39h0a2.48,2.48,0,0,1,3.4-.76h0c6.26,4,10.69,5.26,13.57,5.24h0c5.06,0,6.53-3.55,7.29-5.7h0a6.07,6.07,0,0,0,.25-1h0a2.46,2.46,0,0,1,2.77-2.08h0a2.44,2.44,0,0,1,2.09,2.78h0a14.53,14.53,0,0,1-2.07,5.37h0a11.73,11.73,0,0,1-10.22,5.55h-.11Z" transform="translate(0.22 -19.77)"/><path class="cls-6" d="M246.08,214.31c0,9.4,11.42,17,25.52,17s25.53-7.62,25.53-17-11.44-17-25.53-17S246.08,204.92,246.08,214.31Z" transform="translate(0.22 -19.77)"/><path class="cls-6" d="M46.12,214.31c0,9.4,11.43,17,25.53,17s25.52-7.62,25.52-17-11.43-17-25.52-17S46.12,204.92,46.12,214.31Z" transform="translate(0.22 -19.77)"/></svg>