<svg id="Layer_1" data-name="Layer 1" xmlns="http://www.w3.org/2000/svg" viewBox="0 0 322.44 321.79"><defs><style>.cls-1{fill:#d93741;}.cls-2{fill:#fcb418;}.cls-3{fill:#b97330;}.cls-4{fill:#855322;}.cls-5{fill:#1a1a1a;}.cls-6{fill:#ee7399;}.cls-7{fill:#171717;}.cls-8{fill:#fff;}</style></defs><path class="cls-1" d="M311.71,80.33c-33.66-49.94-72.53-58.3-89.32-59.4,0,0,0,0,0,0,1.15-1.09,3.71-3.1,9.08-6.14,0,0,6.95-2.64-1.28-4.92a85,85,0,0,0-33.5,1.78c4.45-2.76,9.53-6.48,8-8.27,0,0,.45-5.67-15.58-1.93,0,0-10.62,3.07-16.87,7.12C166,4.45,155.39,1.32,155.39,1.32c-16-3.82-15.61,1.85-15.61,1.85-1.52,1.78,3.53,5.53,8,8.31a85.21,85.21,0,0,0-33.47-2C106,11.76,113,14.42,113,14.42a49.36,49.36,0,0,1,9,6.19s0,0,0,0c-16.8,1-55.7,9.15-89.64,58.91,0,0-28.67,44.1-20.08,67.91,0,0,2,5.11,8.34-1.84a86.15,86.15,0,0,0-1.52,11.48c-1.12,13.12.54,35.38,17.64,59.93,0,0,4.71,6.81,8.22-3h0a130.13,130.13,0,0,0,17.61,36.58C67,257,86.84,285.69,90.4,267.91a7.16,7.16,0,0,0,1.18,4,23.23,23.23,0,0,0,6,6.94A97.87,97.87,0,0,0,111.28,289s31.94,27.33,37.26,12.24a14,14,0,0,0,2.12,5.17c7.51,15.56,18.43,15.74,20.67,15.24,2.21.52,13.15.39,20.74-15.12a13.49,13.49,0,0,0,2.54-7.18c0-.22.11-.46.15-.74,4,14.17,23.45-.63,31-6.16s27.92-15,26.55-24.92c2.95,19.73,23.61-9.88,28.18-16.33a130.87,130.87,0,0,0,17.83-36.48v0c3.44,9.84,8.21,3,8.21,3,17.25-24.46,19-46.7,18-59.82a89.1,89.1,0,0,0-1.45-11.49c6.27,7,8.32,1.89,8.32,1.89C340.13,124.6,311.71,80.33,311.71,80.33Z" transform="translate(-10.62 0)"/><path class="cls-2" d="M110.86,93.58A28.43,28.43,0,1,1,82.43,64.66,28.67,28.67,0,0,1,110.86,93.58Z" transform="translate(-10.62 0)"/><path class="cls-3" d="M96.65,93.58A14.22,14.22,0,1,1,82.43,79.12,14.35,14.35,0,0,1,96.65,93.58Z" transform="translate(-10.62 0)"/><path class="cls-2" d="M231,93.58a28.44,28.44,0,1,0,28.43-28.92A28.67,28.67,0,0,0,231,93.58Z" transform="translate(-10.62 0)"/><path class="cls-3" d="M245.25,93.58a14.22,14.22,0,1,0,14.22-14.46A14.35,14.35,0,0,0,245.25,93.58Z" transform="translate(-10.62 0)"/><path class="cls-2" d="M282.7,157.92c0,53.73-50.06,97.3-111.81,97.3S59.07,211.65,59.07,157.92s50.06-97.31,111.82-97.31S282.7,104.17,282.7,157.92Z" transform="translate(-10.62 0)"/><path class="cls-3" d="M198.54,167.45c-1.9-12.06-7.36-38.26-25-38.85v0h-.41a.85.85,0,0,0-.22,0v0c-16.3-.37-24.19,25-27.08,36.81-5,20.55,3.8,32.16,23.32,34.23v.12c.66,0,1.27,0,1.93,0s1.29.1,2,.13v-.12C192.35,199.2,201.86,188.32,198.54,167.45Z" transform="translate(-10.62 0)"/><path class="cls-4" d="M169.19,199.61v.12c.66,0,1.27,0,1.93,0s1.29.1,2,.13v-.12c12.71-.35,21.07-5.33,24.41-14.58-6-4.71-14.73-7.89-24.72-8.28-10.86-.43-20.64,2.58-26.92,7.55C148.85,193.19,156.87,198.31,169.19,199.61Z" transform="translate(-10.62 0)"/><polygon class="cls-5" points="213.67 202.71 213.67 202.71 213.67 202.71 213.67 202.71"/><path class="cls-5" d="M227.8,202a1.79,1.79,0,0,0-3.51.67,10.18,10.18,0,0,1,.17,1.85c0,4-2.29,8.46-5.4,10.39-4.69,3-9.65,3.7-15.48,4.07-2.4.15-4.85.24-7.3.24a82.31,82.31,0,0,1-11.81-.79c-4.27-.55-9.91-2.1-10.94-5.43a2,2,0,0,0-.36-.57V199.76a1.79,1.79,0,1,0-3.58,0v13.36a1,1,0,0,0,0,.17c-1.23,3.15-6.59,4.64-10.74,5.18a80.82,80.82,0,0,1-11.71.79c-2.43,0-4.86-.09-7.24-.24-5.79-.37-10.7-1.11-15.35-4.07-3.09-1.92-5.39-6.43-5.36-10.39a9.36,9.36,0,0,1,.17-1.85,1.79,1.79,0,0,0-3.51-.66h0a13.28,13.28,0,0,0-.24,2.52,16.46,16.46,0,0,0,7,13.4c5.43,3.47,11.12,4.25,17,4.63,2.45.15,4.95.24,7.47.24a84.66,84.66,0,0,0,12.24-.83c3.61-.6,9.14-1.49,12.22-5.31,3.11,3.82,8.67,4.71,12.32,5.31a85.67,85.67,0,0,0,12.32.83c2.53,0,5.06-.09,7.53-.24,6-.38,11.69-1.16,17.16-4.62A16.42,16.42,0,0,0,228,204.56,13.35,13.35,0,0,0,227.8,202Z" transform="translate(-10.62 0)"/><path class="cls-6" d="M122.4,182.88c0,10.68-10.59,19.35-23.65,19.35s-23.64-8.67-23.64-19.35,10.58-19.35,23.64-19.35S122.4,172.19,122.4,182.88Z" transform="translate(-10.62 0)"/><path class="cls-6" d="M268.58,182.88c0,10.68-10.59,19.35-23.65,19.35s-23.65-8.67-23.65-19.35,10.59-19.35,23.65-19.35S268.58,172.19,268.58,182.88Z" transform="translate(-10.62 0)"/><path class="cls-7" d="M87,180.88l-36.95-9.82a1.93,1.93,0,0,1-1.37-2.36h0a1.94,1.94,0,0,1,2.36-1.37h0l37,9.83a1.92,1.92,0,0,1,1.36,2.36h0a1.92,1.92,0,0,1-1.86,1.42h0a1.65,1.65,0,0,1-.49-.06Z" transform="translate(-10.62 0)"/><path class="cls-7" d="M87.21,186l-38.95-2.15a1.93,1.93,0,0,1-1.82-2h0a1.94,1.94,0,0,1,2-1.82h0l39,2.15a1.93,1.93,0,0,1,1.82,2h0A1.93,1.93,0,0,1,87.31,186h-.1Z" transform="translate(-10.62 0)"/><path class="cls-7" d="M48.65,195.9a1.94,1.94,0,0,1,1.59-2.22h0l36.95-6.05a1.92,1.92,0,0,1,2.21,1.59h0a1.92,1.92,0,0,1-1.59,2.21h0l-36.94,6.06-.31,0h0a2,2,0,0,1-1.91-1.62Z" transform="translate(-10.62 0)"/><path class="cls-8" d="M92.47,131.39l52.8,7.3s-4.4,28.17-30.17,24.27C115.1,163,86.05,161.22,92.47,131.39Z" transform="translate(-10.62 0)"/><path class="cls-7" d="M108.2,133.61s-3.83,18.87,4.93,20.95c0,0,11.9,5.42,16-18.23Z" transform="translate(-10.62 0)"/><path class="cls-8" d="M107.69,131.39s-1.51,7.44,2,8.27c0,0,4.7,2.13,6.32-7.2Z" transform="translate(-10.62 0)"/><path class="cls-7" d="M145,140.46l-58.64-8.75a1.79,1.79,0,0,1-1.51-2h0a1.8,1.8,0,0,1,2-1.51h0l58.65,8.75a1.8,1.8,0,0,1,1.5,2h0a1.79,1.79,0,0,1-1.76,1.52h0a1.23,1.23,0,0,1-.27,0Z" transform="translate(-10.62 0)"/><path class="cls-8" d="M251.22,131.39l-52.81,7.3s4.41,28.17,30.17,24.27C228.58,163,257.64,161.22,251.22,131.39Z" transform="translate(-10.62 0)"/><path class="cls-7" d="M235.49,133.61s3.82,18.87-4.93,20.95c0,0-11.9,5.42-16-18.23Z" transform="translate(-10.62 0)"/><path class="cls-8" d="M221.84,133.61s1.51,7.45-1.94,8.27c0,0-4.7,2.14-6.33-7.2Z" transform="translate(-10.62 0)"/><path class="cls-7" d="M198.68,140.46l58.64-8.75a1.78,1.78,0,0,0,1.5-2h0a1.79,1.79,0,0,0-2-1.51h0l-58.64,8.75a1.8,1.8,0,0,0-1.51,2h0a1.8,1.8,0,0,0,1.77,1.52h0a1.27,1.27,0,0,0,.27,0Z" transform="translate(-10.62 0)"/><path class="cls-7" d="M254.32,179.52a1.93,1.93,0,0,1,1.37-2.36h0l36.94-9.83A1.94,1.94,0,0,1,295,168.7h0a1.92,1.92,0,0,1-1.37,2.36h0l-36.94,9.82a1.71,1.71,0,0,1-.5.06h0a1.92,1.92,0,0,1-1.86-1.42Z" transform="translate(-10.62 0)"/><path class="cls-7" d="M254.45,184.19a1.93,1.93,0,0,1,1.82-2h0L295.21,180a1.93,1.93,0,0,1,2,1.82h0a1.92,1.92,0,0,1-1.81,2h0L256.48,186h-.11a1.92,1.92,0,0,1-1.92-1.82Z" transform="translate(-10.62 0)"/><path class="cls-7" d="M292.82,197.49l-36.95-6.06a1.91,1.91,0,0,1-1.58-2.21h0a1.92,1.92,0,0,1,2.21-1.59h0l36.94,6.05A1.94,1.94,0,0,1,295,195.9h0a1.92,1.92,0,0,1-1.9,1.61h0a1.62,1.62,0,0,1-.31,0Z" transform="translate(-10.62 0)"/><path class="cls-1" d="M106.54,78.17c-.26.56,8,8.31,11.31,10.44,6.76,4.36,10,.19,9.83-8.58,3.85,10.54,12.26,16.15,16.4,16.07,7.19-.14,7.49-11.1,7-15.69.8,9.33,8.15,22.19,20.87,21l.16-54.11S123.21,42,106.54,78.17Z" transform="translate(-10.62 0)"/><path class="cls-1" d="M235.73,77.67c.26.55-8.87,8.4-12.11,10.62-6.31,4.32-9.49.51-9.32-8.26C210.45,90.57,202,96.18,197.91,96.1c-7.2-.14-7.5-11.1-7-15.69-.81,9.33-8.16,22.19-20.88,21l-.16-54.11S219.06,41.51,235.73,77.67Z" transform="translate(-10.62 0)"/></svg>