<svg id="Layer_1" data-name="Layer 1" xmlns="http://www.w3.org/2000/svg" viewBox="0 0 343.69 251.77"><defs><style>.cls-1{fill:#9facbd;}.cls-2{fill:#c9d0db;}.cls-3{fill:#a8b5c3;}.cls-4{fill:#f5adcd;}.cls-5{fill:#d9e0ec;}.cls-6{fill:#9cbbd0;}.cls-7{fill:#171717;}.cls-8{fill:#fff;}.cls-9{fill:#1a1a1a;}</style></defs><path class="cls-1" d="M148.22,108.7c1.07-1.83-4.69-13.47-5.4-15.25-4.13-10.44-9.25-20.78-16.91-29C86.9,22.33,10,67,.75,115.69c-4.2,22.16,9.9,35.19,28.14,43.81a236.39,236.39,0,0,0,40.36,15.13c5.18,1.38,34.79,9.25,37.57,4.52C106.82,179.14,148.16,108.79,148.22,108.7Z" transform="translate(0 -35.01)"/><path class="cls-2" d="M126.91,110.14c.66-1.24-3.46-8.71-4-9.87-3-6.73-6.67-13.39-11.94-18.6-26.81-26.53-76.12,5-80.81,37.3-2.14,14.68,7.5,22.84,19.73,28a155.44,155.44,0,0,0,27,8.79c3.44.75,23.12,5.08,24.82,1.88C101.69,157.62,126.88,110.21,126.91,110.14Z" transform="translate(0 -35.01)"/><path class="cls-1" d="M195.46,108.7c-1.07-1.83,4.7-13.47,5.4-15.25,4.14-10.44,9.25-20.78,16.92-29,39-42.07,115.94,2.6,125.16,51.29,4.2,22.16-9.91,35.19-28.15,43.81a236.07,236.07,0,0,1-40.36,15.13c-5.17,1.38-34.78,9.25-37.56,4.52C236.87,179.14,195.52,108.79,195.46,108.7Z" transform="translate(0 -35.01)"/><path class="cls-2" d="M216.77,110.14c-.65-1.24,3.46-8.71,4-9.87,3-6.73,6.66-13.39,11.93-18.6,26.82-26.53,76.12,5,80.81,37.3,2.14,14.68-7.5,22.84-19.73,28a154.89,154.89,0,0,1-26.95,8.79c-3.44.75-23.12,5.08-24.81,1.88Z" transform="translate(0 -35.01)"/><path class="cls-3" d="M265.3,152.16c3.87,51.18-41.94,89.62-93.68,89.62s-93.46-34.22-93.46-83.71,41.73-95.52,93.46-95.52S261.56,102.82,265.3,152.16Z" transform="translate(0 -35.01)"/><path class="cls-4" d="M109.05,157.88c-8.16,0-14.76,4.77-14.76,10.64s6.6,10.65,14.76,10.65,14.75-4.77,14.75-10.65S117.2,157.88,109.05,157.88Z" transform="translate(0 -35.01)"/><path class="cls-4" d="M234.64,157.88c-8.15,0-14.76,4.77-14.76,10.64s6.61,10.65,14.76,10.65,14.76-4.77,14.76-10.65S242.79,157.88,234.64,157.88Z" transform="translate(0 -35.01)"/><path class="cls-2" d="M160,161.65c-24.68,9.16-27.73,38.24-15.14,59.9,5.25,9,9.48,16.63,11.6,27.08,1.92,9.44.13,19.72,4.2,28.53,5,10.79,16,12.74,23.84,4.65,6.92-7.18,5.91-19.71,7.59-29,4.16-22.93,18.39-47.53,12.73-71.36-4.23-17.88-29.7-25.78-44.55-19.89" transform="translate(0 -35.01)"/><path class="cls-5" d="M150.24,182.29s17.95,6.65,44.37.26C194.61,182.55,169,195.78,150.24,182.29Z" transform="translate(0 -35.01)"/><path class="cls-5" d="M150.24,201.31s17.95,6.65,44.37.26C194.61,201.57,169,214.8,150.24,201.31Z" transform="translate(0 -35.01)"/><path class="cls-5" d="M156,220.32s13.33,4.94,32.94.2C188.89,220.52,169.88,230.33,156,220.32Z" transform="translate(0 -35.01)"/><path class="cls-5" d="M159.76,239.34s10.25,3.79,25.31.15C185.07,239.49,170.47,247,159.76,239.34Z" transform="translate(0 -35.01)"/><path class="cls-5" d="M162.14,255.42s8.32,3.08,20.56.12C182.7,255.54,170.84,261.67,162.14,255.42Z" transform="translate(0 -35.01)"/><path class="cls-6" d="M113.86,131.41" transform="translate(0 -35.01)"/><path class="cls-3" d="M156.17,64.28S176.37,51.77,175.28,35c0,0,19.48,15.48,9.28,35.88l-15.73-.53Z" transform="translate(0 -35.01)"/><path class="cls-7" d="M224,132a1.34,1.34,0,0,1,.91-1.67h0a5.56,5.56,0,0,0,.56-.22h0a11.6,11.6,0,0,0,1.57-.84h0a11.12,11.12,0,0,0,3.81-4.23h0a1.34,1.34,0,0,1,1.81-.58h0a1.33,1.33,0,0,1,.58,1.8h0a13.56,13.56,0,0,1-7.57,6.66h0a1.65,1.65,0,0,1-.38.05h0a1.34,1.34,0,0,1-1.29-1Z" transform="translate(0 -35.01)"/><path class="cls-7" d="M219.59,126.55a1.35,1.35,0,0,1,.77-1.75h0s.21-.08.63-.29h0a14.77,14.77,0,0,0,1.63-1h0a11.4,11.4,0,0,0,3.72-4h0a1.34,1.34,0,0,1,1.82-.57h0a1.35,1.35,0,0,1,.56,1.82h0a15.4,15.4,0,0,1-7.38,6.5h0a1.41,1.41,0,0,1-.49.09h0a1.35,1.35,0,0,1-1.26-.85Z" transform="translate(0 -35.01)"/><path class="cls-8" d="M227.61,137.77a17.59,17.59,0,1,1-17.55-17.62A17.57,17.57,0,0,1,227.61,137.77Z" transform="translate(0 -35.01)"/><path class="cls-9" d="M221,137.76a11,11,0,1,1-11-11A11,11,0,0,1,221,137.76Z" transform="translate(0 -35.01)"/><path class="cls-8" d="M206.29,130.91a3,3,0,1,1-3-3A3,3,0,0,1,206.29,130.91Z" transform="translate(0 -35.01)"/><path class="cls-7" d="M119.72,132a1.35,1.35,0,0,0-.92-1.67h0s-.17-.05-.56-.22h0a11.59,11.59,0,0,1-1.56-.84h0a11.06,11.06,0,0,1-3.82-4.23h0a1.33,1.33,0,0,0-1.81-.58h0a1.33,1.33,0,0,0-.58,1.8h0a13.57,13.57,0,0,0,7.58,6.66h0a1.58,1.58,0,0,0,.38.05h0a1.34,1.34,0,0,0,1.29-1Z" transform="translate(0 -35.01)"/><path class="cls-7" d="M124.09,126.55a1.34,1.34,0,0,0-.76-1.75h0a6.25,6.25,0,0,1-.63-.29h0a14.75,14.75,0,0,1-1.64-1h0a11.29,11.29,0,0,1-3.71-4h0a1.35,1.35,0,0,0-1.82-.57h0a1.35,1.35,0,0,0-.57,1.82h0a15.35,15.35,0,0,0,7.39,6.5h0a1.37,1.37,0,0,0,.49.09h0a1.34,1.34,0,0,0,1.25-.85Z" transform="translate(0 -35.01)"/><path class="cls-8" d="M151.24,137.77a17.59,17.59,0,1,1-17.55-17.62A17.57,17.57,0,0,1,151.24,137.77Z" transform="translate(0 -35.01)"/><path class="cls-9" d="M144.65,137.76a11,11,0,1,1-11-11A11,11,0,0,1,144.65,137.76Z" transform="translate(0 -35.01)"/><path class="cls-8" d="M129.92,130.91a3,3,0,1,1-3-3A3,3,0,0,1,129.92,130.91Z" transform="translate(0 -35.01)"/></svg>