<svg id="Layer_1" data-name="Layer 1" xmlns="http://www.w3.org/2000/svg" viewBox="0 0 328.78 321.79"><defs><style>.cls-1{fill:#adb9c9;}.cls-2{fill:#8599ac;}.cls-3{fill:#a8b5c3;}.cls-4{fill:#171717;}.cls-5{fill:#fff;}.cls-6{fill:#1a1a1a;}.cls-7{fill:#ced4df;}.cls-8{fill:#abb2bc;}.cls-9{fill:#fafae8;fill-rule:evenodd;}</style></defs><path class="cls-1" d="M90.51,65.09C75.83,51.33,33.69,28.9,41.66,72.45c5.55,30.34,49.37,32.23,52.1-1.24" transform="translate(-7.45 0)"/><path class="cls-2" d="M79.79,68.94c-7.27-6.41-28.13-16.86-24.19,3.44,2.75,14.15,24.45,15,25.8-.57" transform="translate(-7.45 0)"/><path class="cls-1" d="M259.64,65.09c14.68-13.76,56.81-36.19,48.84,7.36-5.54,30.34-49.36,32.23-52.1-1.24" transform="translate(-7.45 0)"/><path class="cls-2" d="M270.35,68.94c7.28-6.41,28.14-16.86,24.19,3.44-2.75,14.15-24.44,15-25.8-.57" transform="translate(-7.45 0)"/><path class="cls-3" d="M313.25,167.84c5.81,75.14-62.9,131.57-140.48,131.57S32.61,249.18,32.61,176.52,95.19,36.28,172.77,36.28,307.64,95.4,313.25,167.84Z" transform="translate(-7.45 0)"/><path class="cls-4" d="M242.28,104.76a1.81,1.81,0,0,1,1.23-2.26h0s.23-.07.76-.3h0a14.57,14.57,0,0,0,2.11-1.14h0a15,15,0,0,0,5.16-5.71h0a1.8,1.8,0,0,1,2.44-.79h0a1.79,1.79,0,0,1,.79,2.43h0a18.32,18.32,0,0,1-10.23,9h0a1.91,1.91,0,0,1-.52.07h0a1.81,1.81,0,0,1-1.74-1.3Z" transform="translate(-7.45 0)"/><path class="cls-4" d="M236.36,97.34a1.83,1.83,0,0,1,1-2.36h0s.3-.11.86-.39h0a17.74,17.74,0,0,0,2.21-1.31h0a15.42,15.42,0,0,0,5-5.38h0a1.82,1.82,0,0,1,2.46-.77h0a1.83,1.83,0,0,1,.76,2.46h0a20.78,20.78,0,0,1-10,8.78h0a1.81,1.81,0,0,1-.67.13h0a1.82,1.82,0,0,1-1.7-1.16Z" transform="translate(-7.45 0)"/><path class="cls-5" d="M247.2,112.51A23.76,23.76,0,1,1,223.48,88.7,23.76,23.76,0,0,1,247.2,112.51Z" transform="translate(-7.45 0)"/><path class="cls-6" d="M238.3,112.5a14.86,14.86,0,1,1-14.84-14.89A14.87,14.87,0,0,1,238.3,112.5Z" transform="translate(-7.45 0)"/><path class="cls-5" d="M218.39,103.23a4.05,4.05,0,1,1-4-4A4.05,4.05,0,0,1,218.39,103.23Z" transform="translate(-7.45 0)"/><path class="cls-4" d="M101.41,104.76a1.81,1.81,0,0,0-1.23-2.26h0s-.23-.07-.76-.3h0a14.58,14.58,0,0,1-2.12-1.14h0a15,15,0,0,1-5.15-5.71h0a1.81,1.81,0,0,0-2.45-.79h0A1.81,1.81,0,0,0,88.91,97h0a18.33,18.33,0,0,0,10.24,9h0a1.79,1.79,0,0,0,.51.07h0a1.82,1.82,0,0,0,1.75-1.3Z" transform="translate(-7.45 0)"/><path class="cls-4" d="M107.32,97.34a1.81,1.81,0,0,0-1-2.36h0s-.29-.11-.85-.39h0a18.49,18.49,0,0,1-2.22-1.31h0a15.31,15.31,0,0,1-5-5.38h0a1.82,1.82,0,0,0-2.46-.77h0A1.83,1.83,0,0,0,95,89.59h0c3.34,6.26,9.83,8.69,10,8.78h0a1.74,1.74,0,0,0,.67.13h0a1.81,1.81,0,0,0,1.69-1.16Z" transform="translate(-7.45 0)"/><path class="cls-5" d="M144,112.51A23.77,23.77,0,1,1,120.29,88.7,23.77,23.77,0,0,1,144,112.51Z" transform="translate(-7.45 0)"/><path class="cls-6" d="M135.1,112.5a14.86,14.86,0,1,1-14.83-14.89A14.85,14.85,0,0,1,135.1,112.5Z" transform="translate(-7.45 0)"/><path class="cls-5" d="M115.2,103.23a4.05,4.05,0,1,1-4-4A4.05,4.05,0,0,1,115.2,103.23Z" transform="translate(-7.45 0)"/><path class="cls-7" d="M313.54,286.83c-22.68,21.49-47.93,28.84-78.13,31.88-60.25,6-154.64,6.44-201.82-29.6C2.39,265.28.07,215.62,21.59,186.2c27-36.89,78.07-39.86,121-38.46,45.49,1.5,93.71-5.8,137.42,10.39,35.92,13.32,59.58,42.08,55.89,79.21C333.65,259.61,325.51,275.48,313.54,286.83Z" transform="translate(-7.45 0)"/><path class="cls-7" d="M133.38,147.86c0,11.51-10,20.84-22.41,20.84s-22.42-9.33-22.42-20.84S98.59,127,111,127,133.38,136.34,133.38,147.86Z" transform="translate(-7.45 0)"/><path class="cls-7" d="M258.47,147.86c0,11.51-10,20.84-22.42,20.84s-22.41-9.33-22.41-20.84,10-20.86,22.41-20.86S258.47,136.34,258.47,147.86Z" transform="translate(-7.45 0)"/><path class="cls-8" d="M120.87,144.73a9.39,9.39,0,1,1-9.38-9.38A9.37,9.37,0,0,1,120.87,144.73Z" transform="translate(-7.45 0)"/><path class="cls-8" d="M244.92,144.73a9.39,9.39,0,1,1-9.39-9.38A9.38,9.38,0,0,1,244.92,144.73Z" transform="translate(-7.45 0)"/><path class="cls-4" d="M158.3,239c-56.45-.85-85.22-6.72-100.28-12.64h0c-15-5.8-16.74-12.38-16.79-13.9h0a3.18,3.18,0,0,1,3-3.38h0a3.18,3.18,0,0,1,3.36,2.72h0l.06.14h0a6.68,6.68,0,0,0,1.13,1.63h0c1.46,1.59,4.72,4.17,11.62,6.89h0c13.8,5.46,42,11.37,98,12.2h4.4c17.38,0,82.66-.69,115.49-9.5h0c11-2.74,17.74-7.16,17.92-9.73h0a3.18,3.18,0,0,1,3.85-2.32h0a3.16,3.16,0,0,1,2.33,3.83h0c-2.34,7.69-11.07,11.11-22.45,14.35h0c-11.51,3.08-26.34,5.14-41.73,6.58h0c-30.75,2.86-63.68,3.13-75.41,3.13H158.3Z" transform="translate(-7.45 0)"/><path class="cls-3" d="M170.68,40.24a3.19,3.19,0,0,1-2.79-3.53h0a18.09,18.09,0,0,0,.11-2.34h0A47.13,47.13,0,0,0,163.83,16h0c-2.84-6-6.66-9.75-10.92-9.66h0a9.26,9.26,0,0,0-1.83.19h0c-3,.62-5.12,2.86-5,4.92h0a4.5,4.5,0,0,0,.32,1.61h0c.56,1.41.94,1.65,1.41,1.92h0a6.92,6.92,0,0,0,3,.44h1a3.18,3.18,0,0,1,3.24,3.12h0A3.2,3.2,0,0,1,152,21.8h0l-1.14,0h0a13,13,0,0,1-5.88-1.12h0a9.33,9.33,0,0,1-4.52-5.38h0a10.77,10.77,0,0,1-.72-3.84h0c.1-6.06,5-10.12,10.1-11.15h0A15.16,15.16,0,0,1,152.91,0h0c8.19.1,13.49,6.5,16.69,13.33h0a53.44,53.44,0,0,1,4.77,21h0a27,27,0,0,1-.16,3.06h0a3.17,3.17,0,0,1-3.15,2.81h-.38Z" transform="translate(-7.45 0)"/><path class="cls-3" d="M170.35,37.44a26.89,26.89,0,0,1-.16-3.07h0a53.22,53.22,0,0,1,4.77-21h0C178.14,6.5,183.45.1,191.65,0h0a15,15,0,0,1,3.09.32h0c5.15,1,10,5.09,10.12,11.15h0a11,11,0,0,1-.7,3.81h0a9.3,9.3,0,0,1-4.54,5.41h0a13,13,0,0,1-5.88,1.12h0l-1.13,0h0a3.18,3.18,0,0,1-3.13-3.24h0a3.18,3.18,0,0,1,3.24-3.13h0l1,0h0a7.22,7.22,0,0,0,3-.43h0c.47-.28.86-.53,1.4-1.91h0a4.72,4.72,0,0,0,.31-1.63h0c.1-2.07-2-4.3-5-4.92h0a9.23,9.23,0,0,0-1.82-.19h0c-4.26-.09-8.09,3.64-10.93,9.67h0a47.13,47.13,0,0,0-4.17,18.33h0a19.93,19.93,0,0,0,.13,2.34h0a3.19,3.19,0,0,1-2.8,3.53h-.36a3.19,3.19,0,0,1-3.17-2.81Z" transform="translate(-7.45 0)"/><path class="cls-9" d="M147.7,152.7c0-21.7,18.94-75,24.14-75S196,131,196,152.7c0,18.1-12.07,23.62-24.15,23.62S147.7,170.8,147.7,152.7Z" transform="translate(-7.45 0)"/></svg>