<svg id="Layer_1" data-name="Layer 1" xmlns="http://www.w3.org/2000/svg" viewBox="0 0 343.69 283.51"><defs><style>.cls-1{fill:#f89f1c;}.cls-2{fill:#ec7d23;}.cls-3{fill:#f9ac1b;}.cls-4{fill:#ee72aa;}.cls-5{fill:#4a2d2c;}.cls-6{fill:#fff;}.cls-7{fill:#1a1a1a;}.cls-8{fill:#ffc558;}.cls-9{fill:#bc202e;}.cls-10{fill:#fffdf4;}</style></defs><path class="cls-1" d="M84.85,68.49A42.43,42.43,0,1,1,42.5,26,42.43,42.43,0,0,1,84.85,68.49Z" transform="translate(0 -19.14)"/><path class="cls-2" d="M63.64,68.44A21.22,21.22,0,1,1,42.46,47.2,21.2,21.2,0,0,1,63.64,68.44Z" transform="translate(0 -19.14)"/><path class="cls-1" d="M258.83,68.78a42.43,42.43,0,1,0,42.49-42.36A42.43,42.43,0,0,0,258.83,68.78Z" transform="translate(0 -19.14)"/><path class="cls-2" d="M280,68.81a21.22,21.22,0,1,0,21.24-21.18A21.21,21.21,0,0,0,280,68.81Z" transform="translate(0 -19.14)"/><path class="cls-3" d="M337,161.91c-.13,77.89-74.16,140.9-165.35,140.74S6.61,239.22,6.74,161.33,80.9,20.4,172.08,20.57,337.08,84,337,161.91Z" transform="translate(0 -19.14)"/><path class="cls-4" d="M253.22,179.09c0,8.57,8.65,15.51,19.35,15.53S292,187.71,292,179.15s-8.65-15.52-19.35-15.53S253.25,170.53,253.22,179.09Z" transform="translate(0 -19.14)"/><path class="cls-4" d="M51.71,179.09c0,8.57,8.65,15.51,19.35,15.53s19.38-6.91,19.4-15.47-8.65-15.52-19.34-15.53S51.73,170.53,51.71,179.09Z" transform="translate(0 -19.14)"/><path class="cls-5" d="M212.07,37.89a80.91,80.91,0,0,0-21.45-7c.24-3.22.47-6.54.69-10.08a97.23,97.23,0,0,0-17.58-1.67,98.74,98.74,0,0,0-21.12,2.31c.2,3,.43,6.17.69,9.44a80.2,80.2,0,0,0-21,6.85s-11.49,5.67-10.51,11.13c0,0,0,7.93,21.45,4.74,0,0,5.67-.53,12.35-1.18.47,3.56,1,7.08,1.57,10.51a68,68,0,0,0-17.38,5.71s-9.75,4.82-8.92,9.44c0,0,0,6.74,18.21,4,0,0,5.75-.54,12.09-1.16,2.92,9.86,6.73,16.72,11.68,17.37,0,0,5.36,1.22,10.55-17.61,7.3.75,14.78,1.48,14.78,1.48,18.21,2.76,18.23-4,18.23-4,.84-4.62-8.89-9.47-8.89-9.47a70.29,70.29,0,0,0-20.34-6.32c.49-3.06,1-6.38,1.4-10l12.55,1.25C222.53,57,222.54,49,222.54,49,223.54,43.59,212.07,37.89,212.07,37.89Z" transform="translate(0 -19.14)"/><path class="cls-5" d="M43.5,186.5s2.3-9.75-37.81-16.81a121.7,121.7,0,0,0,5.53,29C26.19,197.55,42.19,194.45,43.5,186.5Z" transform="translate(0 -19.14)"/><path class="cls-5" d="M47.23,205.09s-2.95-8.21-33.71.17a130.07,130.07,0,0,0,12.89,25.11C38.57,222.58,50.5,212.6,47.23,205.09Z" transform="translate(0 -19.14)"/><path class="cls-5" d="M298.9,186.93c1.32,7.95,17.66,11.09,32.93,12.29a120,120,0,0,0,5.74-29C296.59,177.17,298.9,186.93,298.9,186.93Z" transform="translate(0 -19.14)"/><path class="cls-5" d="M295,205.5c-3.35,7.51,8.79,17.53,21.18,25.38a129.6,129.6,0,0,0,13.23-25.07C298.09,197.31,295,205.5,295,205.5Z" transform="translate(0 -19.14)"/><path class="cls-6" d="M266.77,137a31,31,0,1,1-30.93-31.06A31,31,0,0,1,266.77,137Z" transform="translate(0 -19.14)"/><path class="cls-7" d="M255.16,137a19.38,19.38,0,1,1-19.34-19.42A19.38,19.38,0,0,1,255.16,137Z" transform="translate(0 -19.14)"/><path class="cls-6" d="M229.2,124.88a5.28,5.28,0,1,1-5.27-5.29A5.28,5.28,0,0,1,229.2,124.88Z" transform="translate(0 -19.14)"/><path class="cls-6" d="M138.89,137A31,31,0,1,1,108,105.92,31,31,0,0,1,138.89,137Z" transform="translate(0 -19.14)"/><path class="cls-7" d="M127.28,137a19.38,19.38,0,1,1-19.35-19.42A19.39,19.39,0,0,1,127.28,137Z" transform="translate(0 -19.14)"/><path class="cls-6" d="M101.32,124.88a5.29,5.29,0,1,1-5.27-5.29A5.28,5.28,0,0,1,101.32,124.88Z" transform="translate(0 -19.14)"/><path class="cls-8" d="M248.93,200.88c-.07,38.08-36,68.68-77.15,68.59s-77.08-30.09-77-68.16,36.15-69.82,77.25-69.76S249,162.79,248.93,200.88Z" transform="translate(0 -19.14)"/><path class="cls-5" d="M149.15,156.73c-.38,8.81,9.53,20.11,23.15,19.65,15.28-.49,22.12-10.9,22.25-19.71.15-10.3-9.06-16.38-21.6-16.36S149.67,144.76,149.15,156.73Z" transform="translate(0 -19.14)"/><path class="cls-6" d="M155.23,150.75a4.37,4.37,0,1,0,4.36-4.37A4.34,4.34,0,0,0,155.23,150.75Z" transform="translate(0 -19.14)"/><path class="cls-9" d="M222.4,189.26a5.37,5.37,0,0,0-5.34-4.86l-90.36-.16a5.41,5.41,0,0,0-5.38,5c-.11,1.42-.17,2.82-.17,4.17,0,9.84,2.73,17.86,7.16,23.94,6.65,9.11,16.42,13.63,24.9,16a75,75,0,0,0,18.89,2.59H174c21.28.16,34.34-8.1,41-18s7.48-20.44,7.52-25.51A26.48,26.48,0,0,0,222.4,189.26Z" transform="translate(0 -19.14)"/><path class="cls-10" d="M135.91,183.67s1.71,16.34,8.45,15.27c0,0,6.55.85,7.77-15.2Z" transform="translate(0 -19.14)"/><path class="cls-10" d="M207.78,183.8S206,200.12,199.28,199c0,0-6.55.83-7.72-15.21Z" transform="translate(0 -19.14)"/></svg>