<svg id="Layer_1" data-name="Layer 1" xmlns="http://www.w3.org/2000/svg" viewBox="0 0 343.69 289.8"><defs><style>.cls-1{fill:#adaeb2;}.cls-2{fill:#838086;}.cls-3{fill:#b6b8bc;}.cls-4{fill:#7d7980;}.cls-5{fill:#171717;}.cls-6{fill:#fff;}.cls-7{fill:#1a1a1a;}.cls-8{fill:#f5adcd;}</style></defs><path class="cls-1" d="M111.51,45.81C94.69,33.74,36.32,12.25,15.65,22.62S-.12,82,2.38,100.69C3.63,110,10.81,133.47,20.13,139c11.58,6.84,31-10,39.91-17.47C74.32,109.57,119.15,80,106.9,56.67c-1.65-3.14-1.48-3.12-4.32-5" transform="translate(0 -16)"/><path class="cls-2" d="M81.81,58c-9-6.46-37.91-16.28-49-10.72s-8.44,31.78-7.11,41.8c.67,5,4.52,17.56,9.51,20.5,6.2,3.66,16.6-5.38,21.37-9.36,7.65-6.38,31.65-22.2,25.09-34.71-.88-1.68-.79-1.67-2.31-2.65" transform="translate(0 -16)"/><path class="cls-1" d="M233.05,41.4c16.82-12.06,74.32-33,95-22.6s15.77,59.35,13.26,78.07c-1.25,9.34-8.43,32.78-17.75,38.28-11.58,6.83-31-10-39.91-17.48-14.28-11.92-59.11-41.46-46.86-64.82,1.65-3.14,1.5-3.12,4.33-4.94" transform="translate(0 -16)"/><path class="cls-2" d="M261.87,54.22c9-6.46,37.92-16.28,49-10.72s8.44,31.78,7.1,41.8c-.67,5-4.51,17.56-9.5,20.5-6.21,3.66-16.61-5.38-21.37-9.36-7.65-6.38-31.66-22.2-25.1-34.71.88-1.68.8-1.67,2.32-2.65" transform="translate(0 -16)"/><path class="cls-3" d="M330.58,167.88c0,76.16-71.07,137.91-158.74,137.91S13.11,244,13.11,167.88,84.17,30,171.84,30,330.58,91.71,330.58,167.88Z" transform="translate(0 -16)"/><path class="cls-4" d="M281.36,121C269.61,107.84,255,99.32,240.57,95.87c-17.51-4.94-40.43,1.56-40.43,1.56-31.77,7-54.51,0-54.51,0-25-7.26-42.76-2.32-50.48.84A83,83,0,0,0,62.33,121c-25.54,28.48-28.19,67.75-5.91,87.72s66.17,15.26,91.7-13.22c4.71-5.25,3.49-13.05,6.62-18.83l33.18-2c3.29,6.49-1.89,10.9,3.34,16.74,25.54,28.48,73.73,37.26,96,17.28S306.9,149.44,281.36,121Z" transform="translate(0 -16)"/><path class="cls-2" d="M132.27,201.53s29-24.31,76.33.85l-3.84-35.82H121.19Z" transform="translate(0 -16)"/><path class="cls-5" d="M169.11,235.26V214.49a2.58,2.58,0,0,1,2.59-2.59h0a2.58,2.58,0,0,1,2.59,2.59h0v20.77a2.59,2.59,0,0,1-2.59,2.59h0a2.59,2.59,0,0,1-2.59-2.59Z" transform="translate(0 -16)"/><path class="cls-5" d="M159.5,240.91a30.11,30.11,0,0,1-20-7.88h0a2.59,2.59,0,0,1,0-3.66h0a2.59,2.59,0,0,1,3.66,0h0a12.06,12.06,0,0,0,1.07.92h0a25.15,25.15,0,0,0,3.31,2.22h0a24.47,24.47,0,0,0,12,3.23h0a26,26,0,0,0,10.95-2.56h0a2.58,2.58,0,0,1,3.44,1.24h0a2.6,2.6,0,0,1-1.25,3.45h0a30.91,30.91,0,0,1-13.1,3h0Z" transform="translate(0 -16)"/><path class="cls-5" d="M171.05,237.87a2.59,2.59,0,0,1-1.25-3.45h0a2.59,2.59,0,0,1,3.44-1.25h0a25.55,25.55,0,0,0,10.94,2.56h0a25.14,25.14,0,0,0,15.28-5.44h0c.75-.6,1.07-.92,1.07-.92h0a2.59,2.59,0,0,1,3.66,0h0a2.59,2.59,0,0,1,0,3.66h0a30.07,30.07,0,0,1-20,7.87h0a30.78,30.78,0,0,1-13.09-3Z" transform="translate(0 -16)"/><path class="cls-5" d="M142.11,191.67c-.51,11.53,12.43,26.34,30.29,25.78,20-.62,29-14.25,29.19-25.78.21-13.48-11.84-21.46-28.26-21.46S142.81,176,142.11,191.67Z" transform="translate(0 -16)"/><path class="cls-6" d="M150.1,183.83a5.72,5.72,0,1,0,5.72-5.71A5.71,5.71,0,0,0,150.1,183.83Z" transform="translate(0 -16)"/><path class="cls-7" d="M250.74,147.84a2.6,2.6,0,0,1,.21-3.65h0l10-8.91a2.59,2.59,0,0,1,3.66.2h0a2.6,2.6,0,0,1-.21,3.66h0l-10,8.91a2.58,2.58,0,0,1-1.72.66h0a2.6,2.6,0,0,1-1.94-.87Z" transform="translate(0 -16)"/><path class="cls-7" d="M241.89,142.43a2.57,2.57,0,0,1-1.24-3.44h0l5.68-12.11a2.61,2.61,0,0,1,3.45-1.24h0a2.59,2.59,0,0,1,1.23,3.45h0l-5.68,12.1a2.58,2.58,0,0,1-2.34,1.49h0a2.52,2.52,0,0,1-1.1-.25Z" transform="translate(0 -16)"/><path class="cls-7" d="M231.29,139l-1.46-13.26a2.59,2.59,0,0,1,2.28-2.87h0a2.6,2.6,0,0,1,2.86,2.3h0l1.47,13.26a2.61,2.61,0,0,1-2.29,2.86h-.29a2.59,2.59,0,0,1-2.57-2.3Z" transform="translate(0 -16)"/><path class="cls-6" d="M263.54,164.36A27.64,27.64,0,1,1,236,136.66,27.64,27.64,0,0,1,263.54,164.36Z" transform="translate(0 -16)"/><path class="cls-7" d="M253.18,164.34A17.28,17.28,0,1,1,235.93,147,17.28,17.28,0,0,1,253.18,164.34Z" transform="translate(0 -16)"/><path class="cls-6" d="M230,153.57a4.72,4.72,0,1,1-4.71-4.72A4.71,4.71,0,0,1,230,153.57Z" transform="translate(0 -16)"/><path class="cls-7" d="M92.94,147.84a2.58,2.58,0,0,0-.21-3.65h0l-10-8.91a2.58,2.58,0,0,0-3.65.2h0a2.59,2.59,0,0,0,.21,3.66h0l10,8.91a2.58,2.58,0,0,0,1.72.66h0a2.59,2.59,0,0,0,1.93-.87Z" transform="translate(0 -16)"/><path class="cls-7" d="M101.8,142.43A2.57,2.57,0,0,0,103,139h0l-5.68-12.11a2.62,2.62,0,0,0-3.45-1.24h0a2.6,2.6,0,0,0-1.24,3.45h0l5.69,12.1a2.57,2.57,0,0,0,2.33,1.49h0a2.57,2.57,0,0,0,1.11-.25Z" transform="translate(0 -16)"/><path class="cls-7" d="M112.39,139l1.47-13.26a2.6,2.6,0,0,0-2.29-2.87h0a2.61,2.61,0,0,0-2.86,2.3h0l-1.46,13.26a2.59,2.59,0,0,0,2.29,2.86h.29a2.58,2.58,0,0,0,2.56-2.3Z" transform="translate(0 -16)"/><path class="cls-6" d="M135.42,164.36a27.64,27.64,0,1,1-27.59-27.7A27.64,27.64,0,0,1,135.42,164.36Z" transform="translate(0 -16)"/><path class="cls-7" d="M125.06,164.34A17.28,17.28,0,1,1,107.81,147,17.28,17.28,0,0,1,125.06,164.34Z" transform="translate(0 -16)"/><path class="cls-6" d="M101.91,153.57a4.71,4.71,0,1,1-4.7-4.72A4.7,4.7,0,0,1,101.91,153.57Z" transform="translate(0 -16)"/><path class="cls-8" d="M241.77,217.44c0,8.57,8.65,15.51,19.34,15.53s19.39-6.91,19.41-15.47S271.87,202,261.17,202,241.79,208.88,241.77,217.44Z" transform="translate(0 -16)"/><path class="cls-8" d="M63.17,217.44C63.15,226,71.82,233,82.51,233s19.39-6.91,19.41-15.47S93.27,202,82.57,202,63.19,208.88,63.17,217.44Z" transform="translate(0 -16)"/></svg>