<svg id="Layer_1" data-name="Layer 1" xmlns="http://www.w3.org/2000/svg" viewBox="0 0 288.63 321.79"><defs><style>.cls-1{fill:#e79d71;}.cls-2{fill:#f9a41d;}.cls-3{fill:#ec7d23;}.cls-4{fill:#f9ac1b;}.cls-5{fill:#4a2d2c;}.cls-6{fill:#fff;}.cls-7{fill:#171717;}.cls-8{fill:#ffedb7;}.cls-9{fill:#ee7399;}</style></defs><path class="cls-1" d="M109.72,61.6c4.35-16.53-5.25-33.85-20.25-42.66C71.83,8.57,55.94,6.24,56.15,29.74c.12,13.58,5.38,29.48,15.46,39.51,9.33,9.28,35.1,12.34,37.38-5.63" transform="translate(-27.53 0)"/><path class="cls-2" d="M109.72,61.6c4.35-16.53-5.25-33.85-20.25-42.66C71.83,8.57,55.94,6.24,56.15,29.74c.12,13.58,5.38,29.48,15.46,39.51,9.33,9.28,35.1,12.34,37.38-5.63" transform="translate(-27.53 0)"/><path class="cls-3" d="M97.49,54c2.22-8.44-2.68-17.29-10.34-21.8-9-5.3-17.15-6.49-17,5.52.06,6.95,2.74,15.07,7.9,20.19C82.78,62.61,96,64.17,97.12,55" transform="translate(-27.53 0)"/><path class="cls-1" d="M228.32,61.6c-4.35-16.53,5.25-33.85,20.25-42.66,17.63-10.37,33.53-12.7,33.31,10.8-.11,13.58-5.37,29.48-15.45,39.51-9.33,9.28-35.1,12.34-37.39-5.63" transform="translate(-27.53 0)"/><path class="cls-2" d="M228.32,61.6c-4.35-16.53,5.25-33.85,20.25-42.66,17.63-10.37,33.53-12.7,33.31,10.8-.11,13.58-5.37,29.48-15.45,39.51-9.33,9.28-35.1,12.34-37.39-5.63" transform="translate(-27.53 0)"/><path class="cls-3" d="M240.55,54c-2.23-8.44,2.68-17.29,10.34-21.8,9-5.3,17.14-6.49,17,5.52-.06,6.95-2.75,15.07-7.89,20.19-4.77,4.75-17.95,6.31-19.11-2.88" transform="translate(-27.53 0)"/><path class="cls-4" d="M312.92,159C298.87,44.16,191.63,20.74,191.63,20.74c-5.25-1.45-12.88-1.53-16.34-1.19a57.38,57.38,0,0,0-16.79,1.19S45.71,44.16,30.93,159c0,0-38,158,141.54,162.67v.12c1,0,2,0,3-.06s2.09.06,3.17.06v-.12C349.05,316.86,312.92,159,312.92,159Z" transform="translate(-27.53 0)"/><path class="cls-5" d="M170.31,7c-9.46-4.78-21-1.33-28,6-6.74,7-6,16-4.25,24.89,1.58,8.14,5.56,15.67,10.31,22.39,6.32,9,19.07,25.44,31.8,24.43,9.09-.72,16.77-12.48,21.69-19,9-12,15.69-26.86,13.43-42.15-1.15-7.79-4.89-15.18-12-19.1-9.67-5.34-25.8-7.32-33,3" transform="translate(-27.53 0)"/><path class="cls-6" d="M208.33,109.23c-2.15,16.73,5.73,31.53,17.59,33.05s23.21-10.8,25.36-27.55-5.73-31.52-17.59-33S210.48,92.49,208.33,109.23Z" transform="translate(-27.53 0)"/><path class="cls-7" d="M217.21,110.37c-1.26,9.81,3.36,18.48,10.31,19.38s13.61-6.34,14.87-16.15S239,95.12,232.08,94.22,218.47,100.56,217.21,110.37Z" transform="translate(-27.53 0)"/><path class="cls-6" d="M220.15,99.54c-.58,4.49,1.53,8.45,4.71,8.86s6.22-2.89,6.8-7.38-1.53-8.45-4.71-8.86S220.72,95.06,220.15,99.54Z" transform="translate(-27.53 0)"/><path class="cls-6" d="M135.79,109.23c2.14,16.73-5.73,31.53-17.59,33.05S95,131.48,92.83,114.73s5.73-31.52,17.59-33S133.64,92.49,135.79,109.23Z" transform="translate(-27.53 0)"/><path class="cls-7" d="M126.9,110.37c1.26,9.81-3.36,18.48-10.31,19.38S103,123.41,101.72,113.6,105.07,95.12,112,94.22,125.64,100.56,126.9,110.37Z" transform="translate(-27.53 0)"/><path class="cls-6" d="M112.27,99.54c.57,4.49-1.54,8.45-4.72,8.86s-6.22-2.89-6.8-7.38,1.54-8.45,4.72-8.86S111.69,95.06,112.27,99.54Z" transform="translate(-27.53 0)"/><path class="cls-8" d="M172.49,321.67v.12c1,0,2,0,3-.06s2.08.06,3.16.06v-.12c114.9-3.16,135.65-74.17,137.5-121.31-30-35.09-83.49-58.94-144.3-58.94S57.55,165.27,27.53,200.36C29.47,247.53,52.52,318.57,172.49,321.67Z" transform="translate(-27.53 0)"/><path class="cls-7" d="M254.53,302a2.27,2.27,0,0,1,1.34-2.93h0s.34-.13,1.09-.49h0c.74-.36,1.83-.91,3.14-1.71h0a46.08,46.08,0,0,0,9.67-7.92h0c7-7.57,14.13-20,14.15-40.07h0c0-2.65-.12-5.42-.39-8.34h0a2.3,2.3,0,0,1,2.06-2.49h0a2.29,2.29,0,0,1,2.48,2.07h0c.28,3,.41,6,.41,8.76h0c0,42.53-30.67,54.41-31,54.45h0a2.21,2.21,0,0,1-.79.15h0a2.28,2.28,0,0,1-2.14-1.48Z" transform="translate(-27.53 0)"/><path class="cls-7" d="M296.63,244.39a15.72,15.72,0,0,0-10.38-4h0a20.1,20.1,0,0,0-10.12,3.06h0c-.53.34-.75.51-.75.51h0a2.3,2.3,0,0,1-3.2-.44h0a2.28,2.28,0,0,1,.43-3.19h0a24.47,24.47,0,0,1,13.64-4.51h0a20.43,20.43,0,0,1,13.31,5h0a2.28,2.28,0,0,1,.29,3.2h0a2.26,2.26,0,0,1-1.76.82h0a2.31,2.31,0,0,1-1.46-.52Z" transform="translate(-27.53 0)"/><path class="cls-7" d="M164.46,285.37c0,2.52-2.89,4.56-6.45,4.56s-6.47-2-6.47-4.56,2.9-4.56,6.47-4.56S164.46,282.85,164.46,285.37Z" transform="translate(-27.53 0)"/><path class="cls-7" d="M196.75,285.37c0,2.52-2.9,4.56-6.46,4.56s-6.46-2-6.46-4.56,2.89-4.56,6.46-4.56S196.75,282.85,196.75,285.37Z" transform="translate(-27.53 0)"/><path class="cls-9" d="M288.85,160.91c0,9-9.79,16.21-21.87,16.21s-21.87-7.26-21.87-16.21,9.79-16.2,21.87-16.2S288.85,152,288.85,160.91Z" transform="translate(-27.53 0)"/><path class="cls-9" d="M54.83,160.91c0,9,9.79,16.21,21.87,16.21s21.87-7.26,21.87-16.21-9.79-16.2-21.87-16.2S54.83,152,54.83,160.91Z" transform="translate(-27.53 0)"/></svg>