<svg id="Layer_1" data-name="Layer 1" xmlns="http://www.w3.org/2000/svg" viewBox="0 0 343.92 291"><defs><style>.cls-1{fill:#6b4242;}.cls-2{fill:#4a2d2c;}.cls-3{fill:#855451;}.cls-4{fill:#ee72aa;}.cls-5{fill:#fff;}.cls-6{fill:#171717;}.cls-7{fill:#a56866;}</style></defs><path class="cls-1" d="M94.59,63.63c0,26.64-21.17,48.24-47.3,48.24S0,90.27,0,63.63,21.16,15.4,47.29,15.4,94.59,37,94.59,63.63Z" transform="translate(0 -15.4)"/><path class="cls-2" d="M72.53,66.33a20.3,20.3,0,1,1-20.3-20.71A20.49,20.49,0,0,1,72.53,66.33Z" transform="translate(0 -15.4)"/><path class="cls-1" d="M249.3,63.63c0,26.64,21.18,48.24,47.3,48.24s47.32-21.6,47.32-48.24S322.74,15.4,296.6,15.4,249.3,37,249.3,63.63Z" transform="translate(0 -15.4)"/><path class="cls-2" d="M273.15,65.42a20.3,20.3,0,1,0,20.3-20.68A20.51,20.51,0,0,0,273.15,65.42Z" transform="translate(0 -15.4)"/><path class="cls-3" d="M332.45,163.9c0,78.71-72,142.5-160.82,142.5S10.79,242.61,10.79,163.9s72-142.51,160.84-142.51S332.45,85.19,332.45,163.9Z" transform="translate(0 -15.4)"/><path class="cls-4" d="M246.85,188.24c0,11.82,11.49,21.4,25.67,21.4s25.68-9.58,25.68-21.4-11.5-21.39-25.68-21.39S246.85,176.43,246.85,188.24Z" transform="translate(0 -15.4)"/><path class="cls-4" d="M45.72,188.24c0,11.82,11.49,21.4,25.68,21.4s25.67-9.58,25.67-21.4-11.5-21.39-25.67-21.39S45.72,176.43,45.72,188.24Z" transform="translate(0 -15.4)"/><path class="cls-5" d="M189.84,153a4.32,4.32,0,1,1-4.32-4.32A4.32,4.32,0,0,1,189.84,153Z" transform="translate(0 -15.4)"/><path class="cls-5" d="M200.48,136.69c-3.5,17.21,3.75,33.26,16.18,35.86s25.34-9.26,28.84-26.47-3.75-33.27-16.18-35.86S204,119.46,200.48,136.69Z" transform="translate(0 -15.4)"/><path class="cls-6" d="M208.11,138.27c-2.31,11.37,2.47,22,10.69,23.71s16.75-6.12,19.06-17.48-2.47-22-10.69-23.71S210.42,126.91,208.11,138.27Z" transform="translate(0 -15.4)"/><path class="cls-5" d="M221.22,126.7c.64,3.15-.68,6.09-3,6.56s-4.63-1.69-5.27-4.83.68-6.09,3-6.57S220.58,123.56,221.22,126.7Z" transform="translate(0 -15.4)"/><path class="cls-5" d="M143.44,136.69c3.49,17.21-3.74,33.26-16.18,35.86s-25.34-9.26-28.84-26.47,3.74-33.27,16.19-35.86S139.94,119.46,143.44,136.69Z" transform="translate(0 -15.4)"/><path class="cls-6" d="M135.8,138.27c2.31,11.37-2.47,22-10.69,23.71s-16.74-6.12-19.06-17.48,2.47-22,10.69-23.71S133.49,126.91,135.8,138.27Z" transform="translate(0 -15.4)"/><path class="cls-5" d="M114.24,126.7c.64,3.15-.68,6.09-3,6.56s-4.63-1.69-5.28-4.83.69-6.09,3-6.57S113.6,123.56,114.24,126.7Z" transform="translate(0 -15.4)"/><path class="cls-7" d="M101.38,197.59c0,30.3,32.91,54.67,70.54,54.67s70.62-23.83,70.62-54.12-33-55.64-70.62-55.64S101.38,167.28,101.38,197.59Z" transform="translate(0 -15.4)"/><path class="cls-6" d="M203.75,194.79a18.26,18.26,0,0,0,4.9-10.83h0a3.35,3.35,0,0,0-3.25-3.45h0a3.35,3.35,0,0,0-3.45,3.24h0c-.08,0,0,.53-.41,1.81h0a13.17,13.17,0,0,1-2.78,4.75h0c-3.16,3.49-9.68,7.55-24.17,7.57h0c-1.25,0-2.56,0-4-.09h0a50.14,50.14,0,0,1-13.18-2.51h0c-6.91-2.43-13.59-6.77-15.52-14.89h0a3.35,3.35,0,0,0-4-2.5h0a3.37,3.37,0,0,0-2.48,4h0c6.08,22.69,35,22.37,35,22.57h0c1.45.07,2.83.09,4.21.09h.14c15.6,0,24.39-4.61,29-9.79Z" transform="translate(0 -15.4)"/><path class="cls-6" d="M175.31,199.1V177.91a3.36,3.36,0,0,0-3.34-3.36h0a3.36,3.36,0,0,0-3.37,3.36h0V199.1a3.37,3.37,0,0,0,3.37,3.36h0a3.36,3.36,0,0,0,3.34-3.36Z" transform="translate(0 -15.4)"/><path class="cls-6" d="M148.37,157.81c-.42,9.16,9.85,20.9,24,20.46,15.89-.49,23-11.3,23.16-20.46.18-10.68-9.4-17-22.42-17S148.91,145.36,148.37,157.81Z" transform="translate(0 -15.4)"/><path class="cls-5" d="M154.87,151.55a4.25,4.25,0,1,0,4.25-4.23A4.25,4.25,0,0,0,154.87,151.55Z" transform="translate(0 -15.4)"/></svg>